<?xml version="1.0" encoding="UTF-8" standalone="no"?>
<!-- Created with Inkscape (http://www.inkscape.org/) -->

<svg
   xmlns:dc="http://purl.org/dc/elements/1.1/"
   xmlns:cc="http://creativecommons.org/ns#"
   xmlns:rdf="http://www.w3.org/1999/02/22-rdf-syntax-ns#"
   xmlns:svg="http://www.w3.org/2000/svg"
   xmlns="http://www.w3.org/2000/svg"
   xmlns:sodipodi="http://sodipodi.sourceforge.net/DTD/sodipodi-0.dtd"
   xmlns:inkscape="http://www.inkscape.org/namespaces/inkscape"
   width="48pt"
   height="34pt"
   viewBox="0 0 16.933332 11.994444"
   version="1.1"
   id="svg8"
   inkscape:version="0.92.2 (5c3e80d, 2017-08-06)"
   sodipodi:docname="a1.svg">
  <defs
     id="defs2" />
  <sodipodi:namedview
     id="base"
     pagecolor="#ffffff"
     bordercolor="#666666"
     borderopacity="1.0"
     inkscape:pageopacity="0.0"
     inkscape:pageshadow="2"
     inkscape:zoom="7.9195959"
     inkscape:cx="2.5178591"
     inkscape:cy="16.576128"
     inkscape:document-units="mm"
     inkscape:current-layer="layer1"
     showgrid="false"
     units="pt"
     inkscape:window-width="1680"
     inkscape:window-height="987"
     inkscape:window-x="-8"
     inkscape:window-y="-8"
     inkscape:window-maximized="1" />
  <metadata
     id="metadata5">
    <rdf:RDF>
      <cc:Work
         rdf:about="">
        <dc:format>image/svg+xml</dc:format>
        <dc:type
           rdf:resource="http://purl.org/dc/dcmitype/StillImage" />
        <dc:title />
      </cc:Work>
    </rdf:RDF>
  </metadata>
  <g
     inkscape:label="圖層 1"
     inkscape:groupmode="layer"
     id="layer1"
     transform="translate(0,-285.00556)">
    <g
       aria-label="關於
廣智"
       style="font-style:normal;font-variant:normal;font-weight:normal;font-stretch:normal;font-size:10.58333302px;line-height:1;font-family:'Harlow Solid Italic';-inkscape-font-specification:'Harlow Solid Italic, ';letter-spacing:0px;word-spacing:0px;writing-mode:lr-tb;fill:#ffffff;fill-opacity:1;stroke:none;stroke-width:0.26458332"
       id="text12">
      <path
         d="M 0.85883524,286.31956 H 1.8960019 v 0.3122 H 0.85883524 Z m 1.03716666,-0.64559 v 0.32809 H 0.85883524 v -0.32809 z m 0.1375833,2.19604 c 0.026458,0.0582 0.058208,0.127 0.089958,0.1958 l -0.4392083,0.037 c 0.2592917,-0.19579 0.5132917,-0.42863 0.746125,-0.67734 L 2.1711685,287.2456 c -0.068792,0.09 -0.142875,0.17462 -0.2169583,0.25929 l -0.3439583,0.0159 c 0.1375833,-0.127 0.269875,-0.28575 0.3915833,-0.4445 l -0.1957917,-0.10054 h 0.5503334 v -1.651 H 0.39316859 v 4.65138 h 0.46566665 v -3.00038 H 1.6790435 c -0.1217083,0.20109 -0.3016249,0.39159 -0.3545416,0.43921 -0.058208,0.0529 -0.1164167,0.0847 -0.1693333,0.0952 0.042333,0.0794 0.084667,0.23813 0.1005416,0.30692 0.052917,-0.0212 0.1375834,-0.037 0.4445,-0.0635 -0.127,0.12171 -0.2275416,0.20637 -0.2804583,0.24341 -0.1058333,0.0794 -0.2010833,0.1323 -0.2804583,0.13759 0.037042,0.0847 0.079375,0.23812 0.09525,0.30162 0.074083,-0.0317 0.206375,-0.0582 0.9842499,-0.13758 0.015875,0.0529 0.037042,0.10054 0.052917,0.14817 H 2.0547519 v 0.47625 c 0,0.0264 0,0.0529 0,0.0794 H 1.6367102 v -0.47096 h -0.3175 v 0.762 h 0.6561667 c -0.079375,0.14288 -0.238125,0.27517 -0.5503333,0.37042 0.068792,0.0582 0.1799166,0.19579 0.22225,0.28046 0.6614583,-0.23284 0.7567083,-0.60854 0.7567083,-1.01071 v -0.48683 h -0.068792 l 0.206375,-0.0794 c -0.052917,-0.13758 -0.1640417,-0.38629 -0.2592917,-0.5715 z m 1.778,1.57692 v -0.91546 h -0.333375 v 0.47096 H 3.0548768 v -0.55562 H 2.7003352 v 1.44991 h 0.3545416 v -0.60325 h 0.4233334 v 0.15346 z m -0.5767917,-2.81517 v -0.3122 h 1.0689166 v 0.3122 z m 1.0689166,-0.95779 v 0.32809 H 3.2347935 v -0.32809 z m 0.4709584,-0.34925 H 2.7691268 v 1.651 h 0.3280834 c -0.1164167,0.20638 -0.301625,0.40217 -0.3545417,0.4445 -0.058208,0.0529 -0.111125,0.0847 -0.1693333,0.0953 0.037042,0.0847 0.079375,0.23813 0.1005417,0.30692 0.047625,-0.0265 0.1322916,-0.0423 0.4444999,-0.0688 -0.1217083,0.12171 -0.2275416,0.20637 -0.2751666,0.24341 -0.111125,0.09 -0.2010833,0.13759 -0.2804583,0.15346 0.037042,0.0741 0.079375,0.23284 0.089958,0.29634 0.079375,-0.0371 0.2116666,-0.0635 0.9895416,-0.14817 0.026458,0.0688 0.052917,0.127 0.068792,0.17462 l 0.254,-0.10054 c -0.052917,-0.14816 -0.1693333,-0.39687 -0.2751667,-0.57679 l -0.2434166,0.0847 c 0.03175,0.0529 0.0635,0.12171 0.09525,0.1905 l -0.4339167,0.037 c 0.254,-0.19579 0.5132917,-0.43921 0.746125,-0.68792 l -0.2592917,-0.17991 c -0.068792,0.0952 -0.1481666,0.17991 -0.2275416,0.26458 l -0.333375,0.0159 c 0.127,-0.127 0.2645833,-0.28045 0.381,-0.4392 l -0.2010834,-0.10584 h 1.0900833 v 2.40242 c 0,0.0741 -0.021167,0.0953 -0.09525,0.10054 -0.0635,0 -0.28575,0 -0.4974166,-0.005 0.0635,0.127 0.127,0.34925 0.142875,0.48154 0.3386666,0 0.5662083,-0.0106 0.7249583,-0.0952 0.1534583,-0.0794 0.1957917,-0.22225 0.1957917,-0.47625 z"
         style="font-style:normal;font-variant:normal;font-weight:500;font-stretch:normal;font-size:5.29166651px;line-height:0.5;font-family:'Noto Sans CJK TC';-inkscape-font-specification:'Noto Sans CJK TC Medium';letter-spacing:1.32291663px;word-spacing:0px;writing-mode:lr-tb;fill:#ffffff;stroke-width:0.26458332"
         id="path12" />
      <path
         d="m 7.7697516,287.07626 c 0.00529,-0.21166 0.010583,-0.4392 0.015875,-0.66675 h 1.1959166 v -0.45508 H 7.9443766 l 0.3598333,-0.14287 c -0.074083,-0.20109 -0.2592917,-0.50271 -0.428625,-0.72496 l -0.4392083,0.17462 c 0.15875,0.21167 0.3175,0.49742 0.3915833,0.69321 h -1.000125 v 0.45508 h 0.47625 c -0.015875,1.38642 -0.058208,2.51355 -0.5979583,3.1803 0.1217083,0.0794 0.2804583,0.2487 0.3598333,0.36512 0.460375,-0.5715 0.619125,-1.41287 0.682625,-2.43417 h 0.5926667 c -0.047625,1.27 -0.089958,1.73567 -0.174625,1.85209 -0.042333,0.0582 -0.084667,0.0741 -0.1534584,0.0741 -0.079375,0 -0.2169583,-0.005 -0.3862916,-0.0159 0.0635,0.1217 0.1164166,0.3122 0.1217083,0.4445 0.1957917,0.005 0.3862917,0.005 0.5027083,-0.0159 0.1375834,-0.0212 0.2275417,-0.0635 0.3227917,-0.1905 0.1375833,-0.18521 0.1905,-0.762 0.238125,-2.39183 0.00529,-0.0582 0.00529,-0.20109 0.00529,-0.20109 z m 1.5292916,1.85209 c 0.4974167,0.26458 1.1482918,0.67204 1.4552078,0.95779 l 0.328084,-0.42333 c -0.322792,-0.27517 -0.98425,-0.66146 -1.4657918,-0.90488 z m 1.5769168,-1.09009 c -0.201084,-0.20108 -0.613833,-0.49741 -0.9207502,-0.6985 l -0.3227916,0.31221 c 0.3175,0.22225 0.7143748,0.53975 0.9048748,0.75142 z m -0.788458,-2.75166 c -0.2328338,0.80962 -0.7037921,1.48696 -1.3176254,1.86796 0.1269999,0.10583 0.2698749,0.26458 0.3439583,0.39687 0.460375,-0.33337 0.8360833,-0.78317 1.1112501,-1.32821 0.28575,0.52388 0.687916,1.00542 1.095375,1.28588 0.08467,-0.12171 0.238125,-0.30163 0.359833,-0.39688 -0.481542,-0.26987 -0.973667,-0.83608 -1.243541,-1.37054 0.04233,-0.10583 0.07408,-0.21696 0.105833,-0.32279 z"
         style="font-style:normal;font-variant:normal;font-weight:500;font-stretch:normal;font-size:5.29166651px;line-height:0.5;font-family:'Noto Sans CJK TC';-inkscape-font-specification:'Noto Sans CJK TC Medium';letter-spacing:1.32291663px;word-spacing:0px;writing-mode:lr-tb;fill:#ffffff;stroke-width:0.26458332"
         id="path14" />
      <path
         d="m 1.0599186,292.53247 h 3.8787915 v -0.41804 H 3.1236685 c -0.037042,-0.13758 -0.1005417,-0.30692 -0.15875,-0.43921 l -0.5027083,0.10054 c 0.037042,0.10584 0.079375,0.22225 0.111125,0.33867 H 0.59425192 v 1.53458 c 0,0.78846 -0.0423333,1.86267 -0.49212499,2.61938 0.111125,0.0476 0.32279166,0.16933 0.40745832,0.24871 0.48154165,-0.80434 0.55033335,-2.02142 0.55033335,-2.86809 z m 2.5294166,0.61913 v 0.21696 H 2.3934185 v -0.21696 z m 0.4921249,0.44979 v -0.44979 h 0.6614584 v -0.29104 H 4.0814601 v -0.2593 H 3.5893352 v 0.2593 H 2.3934185 v -0.2593 H 1.9224602 v 0.2593 H 1.2821686 v 0.29104 h 0.6402916 v 0.44979 z m -2.2172082,1.48696 h 0.9154583 v 0.31221 H 1.8642519 Z m 0,-0.58738 h 0.9154583 v 0.30163 H 1.8642519 Z m 2.2807082,0.30163 H 3.2400852 v -0.30163 h 0.9048749 z m 0,0.59796 H 3.2400852 v -0.31221 h 0.9048749 z m 0.460375,0.30162 v -1.50283 H 1.4197519 v 1.50283 h 0.8837083 c -0.3386667,0.17463 -0.92075,0.39688 -1.31762496,0.52917 0.0846667,0.0952 0.20108336,0.24871 0.26458336,0.34396 0.4180416,-0.15346 1.0107083,-0.381 1.4604999,-0.58209 l -0.3386666,-0.29104 h 1.1377083 l -0.1852084,0.29633 c 0.5027084,0.18521 1.0424583,0.41275 1.3758333,0.5768 l 0.2275417,-0.34925 c -0.3280833,-0.14288 -0.85725,-0.35455 -1.349375,-0.52388 z m -3.4184165,-1.96321 v 0.29634 h 3.7623749 v -0.29634 z"
         style="font-style:normal;font-variant:normal;font-weight:500;font-stretch:normal;font-size:5.29166651px;line-height:0.5;font-family:'Noto Sans CJK TC';-inkscape-font-specification:'Noto Sans CJK TC Medium';letter-spacing:1.32291663px;word-spacing:0px;writing-mode:lr-tb;fill:#ffffff;stroke-width:0.26458332"
         id="path16" />
      <path
         d="m 7.1876683,292.93993 c 0.111125,-0.12171 0.2169583,-0.26458 0.3069166,-0.43392 h 0.3704167 v 0.26988 c 0,0.0529 0,0.10583 -0.00529,0.16404 z m 1.9896666,0.98954 c -0.142875,-0.10054 -0.7249583,-0.4445 -0.9419167,-0.55033 l 0.015875,-0.0476 h 0.9419167 v -0.39158 H 8.3253766 c 0.00529,-0.0529 0.00529,-0.10583 0.00529,-0.15875 v -0.27517 h 0.73025 v -0.39158 H 7.6903766 c 0.042333,-0.11642 0.084667,-0.22754 0.1217083,-0.34925 l -0.4392083,-0.09 c -0.111125,0.39159 -0.3175,0.77788 -0.5820833,1.04246 0.1005416,0.0423 0.2804583,0.15875 0.3757083,0.22225 H 6.8066683 v 0.39158 h 0.9577916 c -0.1217083,0.29634 -0.396875,0.60325 -1.0107083,0.84138 0.111125,0.0794 0.2487083,0.23283 0.3122083,0.32808 0.5185834,-0.23283 0.8307917,-0.51329 1.016,-0.79904 0.254,0.17463 0.5979583,0.42333 0.7514166,0.55033 z m 1.1800421,0.83079 v 0.41275 H 8.0290432 v -0.41275 z m -2.3283338,1.2065 v -0.42333 h 2.3283338 v 0.42333 z m -0.4868333,0.58209 h 0.4868333 v -0.18521 h 2.3283338 v 0.17992 h 0.502708 v -2.17488 H 7.5422099 Z m 3.2755411,-2.9845 H 9.8546682 v -1.02129 h 0.9630828 z m -1.4234578,-1.45521 v 1.88912 h 1.9102918 v -1.88912 z"
         style="font-style:normal;font-variant:normal;font-weight:500;font-stretch:normal;font-size:5.29166651px;line-height:0.5;font-family:'Noto Sans CJK TC';-inkscape-font-specification:'Noto Sans CJK TC Medium';letter-spacing:1.32291663px;word-spacing:0px;writing-mode:lr-tb;fill:#ffffff;stroke-width:0.26458332"
         id="path18" />
    </g>
    <path
       transform="matrix(0.76401584,0,0,0.53596217,3.3306592,135.24587)"
       style="opacity:1;fill:#ffffff;fill-opacity:1;fill-rule:nonzero;stroke:#ffffff;stroke-width:0.60000002;stroke-linecap:square;stroke-linejoin:round;stroke-miterlimit:4;stroke-dasharray:none;stroke-dashoffset:1;stroke-opacity:1"
       inkscape:transform-center-y="-0.3044723"
       d="m 15.326933,289.7196 1.967854,3.40842 -3.935708,0 z"
       id="path45" />
  </g>
</svg>
