<?xml version="1.0" encoding="UTF-8" standalone="no"?>
<!-- Created with Inkscape (http://www.inkscape.org/) -->

<svg
   xmlns:dc="http://purl.org/dc/elements/1.1/"
   xmlns:cc="http://creativecommons.org/ns#"
   xmlns:rdf="http://www.w3.org/1999/02/22-rdf-syntax-ns#"
   xmlns:svg="http://www.w3.org/2000/svg"
   xmlns="http://www.w3.org/2000/svg"
   xmlns:sodipodi="http://sodipodi.sourceforge.net/DTD/sodipodi-0.dtd"
   xmlns:inkscape="http://www.inkscape.org/namespaces/inkscape"
   width="35pt"
   height="34pt"
   viewBox="0 0 12.347222 11.994443"
   version="1.1"
   id="svg8"
   inkscape:version="0.92.2 (5c3e80d, 2017-08-06)"
   sodipodi:docname="a2.svg">
  <defs
     id="defs2" />
  <sodipodi:namedview
     id="base"
     pagecolor="#ffffff"
     bordercolor="#666666"
     borderopacity="1.0"
     inkscape:pageopacity="0.0"
     inkscape:pageshadow="2"
     inkscape:zoom="7.919596"
     inkscape:cx="-2.8994178"
     inkscape:cy="20.433404"
     inkscape:document-units="mm"
     inkscape:current-layer="layer1"
     showgrid="false"
     units="pt"
     inkscape:window-width="1680"
     inkscape:window-height="987"
     inkscape:window-x="-8"
     inkscape:window-y="-8"
     inkscape:window-maximized="1" />
  <metadata
     id="metadata5">
    <rdf:RDF>
      <cc:Work
         rdf:about="">
        <dc:format>image/svg+xml</dc:format>
        <dc:type
           rdf:resource="http://purl.org/dc/dcmitype/StillImage" />
        <dc:title />
      </cc:Work>
    </rdf:RDF>
  </metadata>
  <g
     inkscape:label="圖層 1"
     inkscape:groupmode="layer"
     id="layer1"
     transform="translate(0,-285.00556)">
    <g
       aria-label="專
利"
       style="font-style:normal;font-variant:normal;font-weight:normal;font-stretch:normal;font-size:10.58333302px;line-height:1;font-family:'Harlow Solid Italic';-inkscape-font-specification:'Harlow Solid Italic, ';letter-spacing:0px;word-spacing:0px;writing-mode:lr-tb;fill:#ffffff;fill-opacity:1;stroke:none;stroke-width:0.26458332"
       id="text12">
      <path
         d="m 3.4746506,287.57044 h 0.650875 l -0.1217083,0.10054 c 0.1058333,0.037 0.2169583,0.0847 0.3227916,0.13759 l -0.8519583,0.0106 z M 1.881859,287.26352 v -0.27516 h 1.11125 v 0.27516 z m 0,-0.84137 h 1.11125 v 0.26458 h -1.11125 z m 2.7410833,0 v 0.26458 H 3.4746506 v -0.26458 z m 0,0.84137 H 3.4746506 v -0.27516 h 1.1482917 z m 1.0054166,1.1483 h -1.222375 v -0.28575 l 0.460375,-0.0106 c 0.1058333,0.0688 0.2010833,0.13229 0.2751667,0.19579 l 0.2910416,-0.26458 c -0.1905,-0.14817 -0.5027083,-0.33337 -0.8202083,-0.47625 h 0.492125 v -1.46579 H 3.4746506 v -0.24871 h 1.952625 v -0.381 h -1.952625 v -0.37042 H 2.993109 v 0.37042 H 1.008734 v 0.381 h 1.984375 v 0.24871 H 1.4161924 v 1.46579 H 2.993109 v 0.24871 c -0.7355417,0.005 -1.412875,0.0106 -1.920875,0.0106 l 0.015875,0.37042 c 0.7514167,-0.0106 1.778,-0.0317 2.8363333,-0.0582 v 0.26988 H 0.86056737 v 0.39687 H 1.9347757 l -0.238125,0.20638 c 0.301625,0.19579 0.6614583,0.48683 0.8307916,0.68791 l 0.3598333,-0.3175 C 2.7338173,289.21615 2.437484,288.98332 2.167609,288.80869 h 1.7568333 v 0.635 c 0,0.0635 -0.021167,0.0847 -0.1058334,0.09 -0.079375,0.005 -0.3809999,0.005 -0.6720416,-0.005 0.0635,0.11641 0.1322917,0.30162 0.1534583,0.42333 0.4074583,0 0.6879167,0 0.8678333,-0.0635 0.1905,-0.0688 0.238125,-0.19579 0.238125,-0.42862 v -0.65088 h 1.222375 z"
         style="font-style:normal;font-variant:normal;font-weight:500;font-stretch:normal;font-size:5.29166651px;line-height:0.5;font-family:'Noto Sans CJK TC';-inkscape-font-specification:'Noto Sans CJK TC Medium';letter-spacing:1.32291663px;word-spacing:0px;writing-mode:lr-tb;fill:#ffffff;stroke-width:0.26458332"
         id="path12" />
      <path
         d="m 2.437484,292.3599 c 0.3386666,-0.0741 0.6561666,-0.16933 0.9154583,-0.27517 l -0.3545417,-0.37571 c -0.4974166,0.22225 -1.3864166,0.40746 -2.15370823,0.52388 0.0582083,0.10583 0.12699999,0.26987 0.15345833,0.381 0.301625,-0.037 0.6244166,-0.0847 0.9472083,-0.14817 v 0.78317 H 0.8870257 v 0.45508 H 1.850109 c -0.2434167,0.60854 -0.6720416,1.28588 -1.0742083,1.66159 0.079375,0.13229 0.21166666,0.33866 0.2592917,0.48154 0.3280833,-0.33338 0.6508749,-0.85725 0.9101666,-1.40759 v 2.0955 h 0.492125 v -2.11666 c 0.254,0.26458 0.5450416,0.59266 0.6932083,0.77787 l 0.2804583,-0.41804 C 3.262984,294.63532 2.6967756,294.09027 2.437484,293.86802 v -0.16404 H 3.4640673 V 293.2489 H 2.437484 Z m 1.8785416,-0.0476 H 3.8291923 v 2.91042 h 0.4868333 z m 0.6297083,-0.56091 v 4.14337 c 0,0.10054 -0.042333,0.13229 -0.1375833,0.13759 -0.1058333,0 -0.4392083,0 -0.79375,-0.0159 0.074083,0.13758 0.1534583,0.37042 0.174625,0.508 0.47625,0 0.79375,-0.0159 0.98425,-0.0953 0.1852083,-0.0794 0.2592916,-0.22225 0.2592916,-0.53446 v -4.14337 z"
         style="font-style:normal;font-variant:normal;font-weight:500;font-stretch:normal;font-size:5.29166651px;line-height:0.5;font-family:'Noto Sans CJK TC';-inkscape-font-specification:'Noto Sans CJK TC Medium';letter-spacing:1.32291663px;word-spacing:0px;writing-mode:lr-tb;fill:#ffffff;stroke-width:0.26458332"
         id="path14" />
    </g>
    <path
       transform="matrix(0.76401584,0,0,0.53596217,-1.7058735,134.94853)"
       style="opacity:1;fill:#ffffff;fill-opacity:1;fill-rule:nonzero;stroke:#ffffff;stroke-width:0.60000002;stroke-linecap:square;stroke-linejoin:round;stroke-miterlimit:4;stroke-dasharray:none;stroke-dashoffset:1;stroke-opacity:1"
       inkscape:transform-center-y="-0.3044723"
       d="m 15.326933,289.7196 1.967854,3.40842 -3.935708,0 z"
       id="path45" />
  </g>
</svg>
