<?xml version="1.0" encoding="UTF-8" standalone="no"?>
<!-- Created with Inkscape (http://www.inkscape.org/) -->

<svg
   xmlns:dc="http://purl.org/dc/elements/1.1/"
   xmlns:cc="http://creativecommons.org/ns#"
   xmlns:rdf="http://www.w3.org/1999/02/22-rdf-syntax-ns#"
   xmlns:svg="http://www.w3.org/2000/svg"
   xmlns="http://www.w3.org/2000/svg"
   xmlns:sodipodi="http://sodipodi.sourceforge.net/DTD/sodipodi-0.dtd"
   xmlns:inkscape="http://www.inkscape.org/namespaces/inkscape"
   width="35pt"
   height="34pt"
   viewBox="0 0 12.347222 11.994443"
   version="1.1"
   id="svg8"
   inkscape:version="0.92.2 (5c3e80d, 2017-08-06)"
   sodipodi:docname="a3.svg">
  <defs
     id="defs2" />
  <sodipodi:namedview
     id="base"
     pagecolor="#ffffff"
     bordercolor="#666666"
     borderopacity="1.0"
     inkscape:pageopacity="0.0"
     inkscape:pageshadow="2"
     inkscape:zoom="7.919596"
     inkscape:cx="9.3783217"
     inkscape:cy="21.075107"
     inkscape:document-units="mm"
     inkscape:current-layer="layer1"
     showgrid="false"
     units="pt"
     inkscape:window-width="1680"
     inkscape:window-height="987"
     inkscape:window-x="-8"
     inkscape:window-y="-8"
     inkscape:window-maximized="1" />
  <metadata
     id="metadata5">
    <rdf:RDF>
      <cc:Work
         rdf:about="">
        <dc:format>image/svg+xml</dc:format>
        <dc:type
           rdf:resource="http://purl.org/dc/dcmitype/StillImage" />
        <dc:title />
      </cc:Work>
    </rdf:RDF>
  </metadata>
  <g
     inkscape:label="圖層 1"
     inkscape:groupmode="layer"
     id="layer1"
     transform="translate(0,-285.00556)">
    <g
       aria-label="商
標"
       style="font-style:normal;font-variant:normal;font-weight:normal;font-stretch:normal;font-size:10.58333302px;line-height:1;font-family:'Harlow Solid Italic';-inkscape-font-specification:'Harlow Solid Italic, ';letter-spacing:0px;word-spacing:0px;writing-mode:lr-tb;fill:#ffffff;fill-opacity:1;stroke:none;stroke-width:0.26458332"
       id="text12">
      <path
         d="m 3.7799086,288.45052 v 0.52388 h -1.158875 v -0.52388 z m 0.4021666,0.87842 v -1.23296 H 2.2082836 v 1.46579 h 0.41275 v -0.23283 z M 1.6420753,287.1964 h 0.8307916 c -0.0635,0.34396 -0.2539999,0.52387 -0.8307916,0.62971 z m 3.8893749,-1.524 H 3.5523669 c -0.052917,-0.16933 -0.1375833,-0.39158 -0.2116666,-0.5715 l -0.4709584,0.11642 c 0.052917,0.13758 0.1164167,0.30691 0.1640417,0.45508 H 0.901242 v 0.41804 h 1.4605 l -0.3545417,0.12171 c 0.09525,0.17462 0.2275417,0.42862 0.2910417,0.58737 H 1.1764087 v 3.1803 h 0.4656666 v -2.14842 c 0.089958,0.0794 0.1852083,0.22754 0.22225,0.33337 0.7249583,-0.15875 0.9630833,-0.44979 1.0424583,-0.96837 h 0.5027083 v 0.24871 c 0,0.34396 0.068792,0.508 0.4339167,0.508 h 0.492125 c 0.1164166,0 0.254,-0.005 0.3227916,-0.0265 -0.015875,-0.11113 -0.021167,-0.22754 -0.03175,-0.34396 -0.074083,0.0212 -0.22225,0.0265 -0.301625,0.0265 H 3.9492419 c -0.09525,0 -0.1058333,-0.0423 -0.1058333,-0.15875 v -0.254 h 0.9630833 v 2.29129 c 0,0.0794 -0.03175,0.10583 -0.1217084,0.10583 -0.074083,0.005 -0.3757083,0.005 -0.6826249,-0.005 0.0635,0.10584 0.127,0.25929 0.1481666,0.37571 0.4392084,0 0.714375,-0.005 0.8837083,-0.0688 0.1693334,-0.0635 0.2275417,-0.16404 0.2275417,-0.40746 v -2.68817 H 4.0921169 c 0.127,-0.17991 0.254,-0.39158 0.3704167,-0.59266 l -0.492125,-0.10584 c -0.079375,0.20109 -0.22225,0.49213 -0.3439584,0.6985 H 2.361742 l 0.3862916,-0.14816 c -0.068792,-0.14288 -0.2010833,-0.381 -0.3069166,-0.56092 h 3.0903332 z"
         style="font-style:normal;font-variant:normal;font-weight:500;font-stretch:normal;font-size:5.29166651px;line-height:0.5;font-family:'Noto Sans CJK TC';-inkscape-font-specification:'Noto Sans CJK TC Medium';letter-spacing:1.32291663px;word-spacing:0px;writing-mode:lr-tb;fill:#ffffff;stroke-width:0.26458332"
         id="path30" />
      <path
         d="M 4.2297002,292.63673 H 3.8434086 v -0.29633 h 0.3862916 z m 0.7884583,0.36513 v 0.52387 H 4.5948252 v -0.52387 z m -1.1747499,0 h 0.3862916 v 0.52387 H 3.8434086 Z m -0.7514167,0 h 0.3862917 v 0.52387 H 3.0919919 Z m 0.3862917,-0.36513 h -0.79375 v 1.25413 h 2.7569583 v -1.25413 H 4.5948252 v -0.29633 h 0.9419167 v -0.39688 H 2.5734086 v 0.39688 h 0.904875 z m 1.7356666,1.87325 v -0.38629 H 2.9120753 v 0.38629 z M 2.6369086,294.3724 c -0.089958,-0.14817 -0.47625,-0.75671 -0.619125,-0.94192 v -0.25929 h 0.5503333 v -0.45508 H 2.0177836 v -0.99484 H 1.567992 v 0.99484 H 0.86420033 v 0.45508 H 1.504492 c -0.15875,0.65088 -0.460375,1.44463 -0.77258333,1.86267 0.079375,0.127 0.19049999,0.34396 0.23812499,0.49212 0.22225004,-0.33866 0.43391664,-0.86254 0.59795834,-1.41287 v 2.46062 h 0.4497916 v -2.54 c 0.1322917,0.24871 0.2592917,0.51859 0.3280834,0.67734 z m 0.4339167,0.97896 c -0.1534584,0.30691 -0.4180417,0.61912 -0.6932083,0.83079 0.1058333,0.0635 0.2857499,0.1905 0.3704166,0.26458 0.2751667,-0.23812 0.5715,-0.60854 0.7567083,-0.97366 z m 2.4870832,-0.14817 v -0.39158 H 2.5839919 v 0.39158 h 1.2329583 v 1.37054 h 0.4445 v -1.37054 z m -1.0054166,0.34396 c 0.254,0.25929 0.53975,0.62971 0.66675,0.87312 l 0.381,-0.22754 c -0.1375834,-0.23812 -0.4233334,-0.58737 -0.6879167,-0.84666 z"
         style="font-style:normal;font-variant:normal;font-weight:500;font-stretch:normal;font-size:5.29166651px;line-height:0.5;font-family:'Noto Sans CJK TC';-inkscape-font-specification:'Noto Sans CJK TC Medium';letter-spacing:1.32291663px;word-spacing:0px;writing-mode:lr-tb;fill:#ffffff;stroke-width:0.26458332"
         id="path32" />
    </g>
    <path
       transform="matrix(0.76401584,0,0,0.53596217,-1.7392822,134.98194)"
       style="opacity:1;fill:#ffffff;fill-opacity:1;fill-rule:nonzero;stroke:#ffffff;stroke-width:0.60000002;stroke-linecap:square;stroke-linejoin:round;stroke-miterlimit:4;stroke-dasharray:none;stroke-dashoffset:1;stroke-opacity:1"
       inkscape:transform-center-y="-0.3044723"
       d="m 15.326933,289.7196 1.967854,3.40842 -3.935708,0 z"
       id="path45" />
  </g>
</svg>
