<?xml version="1.0" encoding="UTF-8" standalone="no"?>
<!-- Created with Inkscape (http://www.inkscape.org/) -->

<svg
   xmlns:dc="http://purl.org/dc/elements/1.1/"
   xmlns:cc="http://creativecommons.org/ns#"
   xmlns:rdf="http://www.w3.org/1999/02/22-rdf-syntax-ns#"
   xmlns:svg="http://www.w3.org/2000/svg"
   xmlns="http://www.w3.org/2000/svg"
   xmlns:sodipodi="http://sodipodi.sourceforge.net/DTD/sodipodi-0.dtd"
   xmlns:inkscape="http://www.inkscape.org/namespaces/inkscape"
   width="35pt"
   height="34pt"
   viewBox="0 0 12.347221 11.994444"
   version="1.1"
   id="svg8"
   inkscape:version="0.92.2 (5c3e80d, 2017-08-06)"
   sodipodi:docname="a4.svg">
  <defs
     id="defs2" />
  <sodipodi:namedview
     id="base"
     pagecolor="#ffffff"
     bordercolor="#666666"
     borderopacity="1.0"
     inkscape:pageopacity="0.0"
     inkscape:pageshadow="2"
     inkscape:zoom="11.2"
     inkscape:cx="11.951002"
     inkscape:cy="29.11081"
     inkscape:document-units="mm"
     inkscape:current-layer="layer1"
     showgrid="false"
     units="pt"
     inkscape:window-width="1680"
     inkscape:window-height="987"
     inkscape:window-x="-8"
     inkscape:window-y="-8"
     inkscape:window-maximized="1" />
  <metadata
     id="metadata5">
    <rdf:RDF>
      <cc:Work
         rdf:about="">
        <dc:format>image/svg+xml</dc:format>
        <dc:type
           rdf:resource="http://purl.org/dc/dcmitype/StillImage" />
        <dc:title />
      </cc:Work>
    </rdf:RDF>
  </metadata>
  <g
     inkscape:label="圖層 1"
     inkscape:groupmode="layer"
     id="layer1"
     transform="translate(0,-285.00556)">
    <g
       aria-label="著作
權"
       style="font-style:normal;font-variant:normal;font-weight:normal;font-stretch:normal;font-size:10.58333302px;line-height:1;font-family:'Harlow Solid Italic';-inkscape-font-specification:'Harlow Solid Italic, ';letter-spacing:0px;word-spacing:0px;writing-mode:lr-tb;fill:#ffffff;fill-opacity:1;stroke:none;stroke-width:0.26458332"
       id="text12">
      <path
         d="m 3.7523585,286.19224 h 0.4868333 v -0.37042 h 1.000125 v -0.42862 h -1.000125 v -0.33338 H 3.7523585 v 0.33338 H 3.0009419 v 0.42862 h 0.7514166 z m -2.1537083,-0.005 h 0.4815417 v -0.36513 H 2.7892752 V 285.3932 H 2.0801919 v -0.33338 H 1.5986502 v 0.33338 H 0.58794193 v 0.42862 H 1.5986502 Z m 2.6775833,2.51354 H 2.0801919 v -0.34925 h 2.1960416 z m -2.1960416,0.68262 v -0.35454 h 2.1960416 v 0.35454 z m 3.1697082,-1.7727 v -0.42334 H 4.2021502 c 0.3439583,-0.22225 0.6614583,-0.46037 0.9313333,-0.72496 l -0.3704167,-0.23812 c -0.3598333,0.37042 -0.8360833,0.68792 -1.3705416,0.96308 H 2.8104419 v -0.39687 h 1.2329583 v -0.40746 H 2.8104419 v -0.34925 H 2.3236085 v 0.34925 H 1.0218586 v 0.40746 h 1.3017499 v 0.39687 H 0.58265027 v 0.42334 H 2.4347335 c -0.6297083,0.23812 -1.3017499,0.42862 -1.97908323,0.56091 0.0740833,0.0953 0.19049999,0.29634 0.23283333,0.40217 0.30162499,-0.0741 0.6085416,-0.15346 0.9101666,-0.24342 v 1.58221 h 0.4815417 v -0.14287 h 2.1960416 v 0.14287 h 0.5027083 v -1.94733 H 2.6464002 c 0.2751667,-0.11113 0.53975,-0.22225 0.7990416,-0.35454 z"
         style="font-style:normal;font-variant:normal;font-weight:500;font-stretch:normal;font-size:5.29166651px;line-height:0.5;font-family:'Noto Sans CJK TC';-inkscape-font-specification:'Noto Sans CJK TC Medium';letter-spacing:1.32291663px;word-spacing:0px;writing-mode:lr-tb;fill:#ffffff;stroke-width:0.26458332"
         id="path12" />
      <path
         d="m 8.3243582,285.08628 c -0.2857499,0.77258 -0.7567083,1.54517 -1.2594166,2.04258 0.084667,0.11113 0.2275417,0.3863 0.2751667,0.508 0.1481666,-0.15345 0.2963333,-0.32808 0.4339166,-0.51858 v 2.794 h 0.4974167 v -3.57187 c 0.2010833,-0.35455 0.381,-0.73555 0.523875,-1.10596 z m 3.6353748,1.31763 v -0.47096 H 9.8324832 c 0.1005417,-0.22225 0.1904998,-0.45509 0.2751668,-0.68263 l -0.4709585,-0.127 c -0.254,0.762 -0.6773333,1.524 -1.1429999,2.01084 0.111125,0.0741 0.301625,0.2487 0.381,0.33337 0.254,-0.28046 0.4974166,-0.65087 0.7196666,-1.06362 h 0.2963333 v 3.51366 H 10.3934 v -1.22766 h 1.513416 v -0.46038 H 10.3934 v -0.70379 h 1.439333 v -0.44979 H 10.3934 v -0.67204 z"
         style="font-style:normal;font-variant:normal;font-weight:500;font-stretch:normal;font-size:5.29166651px;line-height:0.5;font-family:'Noto Sans CJK TC';-inkscape-font-specification:'Noto Sans CJK TC Medium';letter-spacing:1.32291663px;word-spacing:0px;writing-mode:lr-tb;fill:#ffffff;stroke-width:0.26458332"
         id="path14" />
      <path
         d="M 4.7260251,293.4582 H 4.2074418 v -0.40217 h 0.5185833 z m 0.381,-0.71967 H 3.8370252 v 1.03717 h 1.2699999 z m -2.0584582,-0.0953 h 0.4286249 v -0.99483 H 3.0485669 v 0.39158 H 2.1648586 v 0.37042 h 0.8837083 z m -0.79375,1.51871 c -0.084667,-0.127 -0.4497917,-0.64559 -0.5715,-0.80434 v -0.254 h 0.5344583 v -0.45508 H 1.6833169 v -1.00012 h -0.428625 v 1.00012 H 0.56677527 v 0.45508 H 1.1859002 c -0.1428749,0.65088 -0.44449994,1.43934 -0.7514166,1.85738 0.079375,0.13229 0.18520833,0.34925 0.23283333,0.49742 0.21695833,-0.34396 0.42862497,-0.87842 0.58737497,-1.42875 v 2.4765 h 0.428625 v -2.58763 c 0.1217083,0.21167 0.238125,0.44979 0.301625,0.58738 z m 0.6720416,1.53458 h 0.6879167 v 0.26988 H 2.9268585 Z m 0,-0.93133 v -0.26988 h 0.6879167 v 0.26988 z m 0.6879167,0.59796 H 2.9268585 v -0.26988 h 0.6879167 z m -0.8995833,-2.30717 h 0.4974166 v 0.40217 H 2.7151919 Z m 1.3282083,2.64054 H 4.9800251 V 295.3632 H 4.0434002 v -0.26988 h 0.9366249 v -0.32808 H 4.0434002 v -0.26988 h 1.1482916 v -0.32279 H 4.0751502 c -0.042333,-0.12171 -0.09525,-0.25929 -0.1375834,-0.37042 l -0.4233333,0.11113 c 0.03175,0.0794 0.0635,0.16933 0.089958,0.25929 H 3.0221085 c 0.0635,-0.10583 0.1217084,-0.22225 0.174625,-0.32808 l -0.2010833,-0.0688 h 0.5979583 v -1.03717 H 2.3447752 v 1.03717 h 0.4233333 c -0.1905,0.39158 -0.4868333,0.7567 -0.7990416,1.00541 0.084667,0.0952 0.206375,0.31221 0.2487083,0.40217 0.089958,-0.0794 0.1799167,-0.17463 0.269875,-0.26458 v 1.59279 h 0.4392083 v -0.17992 h 2.365375 v -0.36512 H 4.0434002 Z m 0.3386666,-3.65654 v -0.39158 h -0.428625 v 0.98954 h 0.428625 v -0.22754 h 0.9472083 v -0.37042 z"
         style="font-style:normal;font-variant:normal;font-weight:500;font-stretch:normal;font-size:5.29166651px;line-height:0.5;font-family:'Noto Sans CJK TC';-inkscape-font-specification:'Noto Sans CJK TC Medium';letter-spacing:1.32291663px;word-spacing:0px;writing-mode:lr-tb;fill:#ffffff;stroke-width:0.26458332"
         id="path16" />
    </g>
    <path
       transform="matrix(0.76401584,0,0,0.53596217,-1.9664039,137.702)"
       style="opacity:1;fill:#ffffff;fill-opacity:1;fill-rule:nonzero;stroke:#ffffff;stroke-width:0.60000002;stroke-linecap:square;stroke-linejoin:round;stroke-miterlimit:4;stroke-dasharray:none;stroke-dashoffset:1;stroke-opacity:1"
       inkscape:transform-center-y="-0.3044723"
       d="m 15.326933,289.7196 1.967854,3.40842 -3.935708,0 z"
       id="path45" />
  </g>
</svg>
