<?xml version="1.0" encoding="UTF-8" standalone="no"?>
<!-- Created with Inkscape (http://www.inkscape.org/) -->

<svg
   xmlns:dc="http://purl.org/dc/elements/1.1/"
   xmlns:cc="http://creativecommons.org/ns#"
   xmlns:rdf="http://www.w3.org/1999/02/22-rdf-syntax-ns#"
   xmlns:svg="http://www.w3.org/2000/svg"
   xmlns="http://www.w3.org/2000/svg"
   xmlns:sodipodi="http://sodipodi.sourceforge.net/DTD/sodipodi-0.dtd"
   xmlns:inkscape="http://www.inkscape.org/namespaces/inkscape"
   width="35pt"
   height="34pt"
   viewBox="0 0 12.347221 11.994444"
   version="1.1"
   id="svg8"
   inkscape:version="0.92.2 (5c3e80d, 2017-08-06)"
   sodipodi:docname="a5.svg">
  <defs
     id="defs2" />
  <sodipodi:namedview
     id="base"
     pagecolor="#ffffff"
     bordercolor="#666666"
     borderopacity="1.0"
     inkscape:pageopacity="0.0"
     inkscape:pageshadow="2"
     inkscape:zoom="11.2"
     inkscape:cx="18.699679"
     inkscape:cy="30.040464"
     inkscape:document-units="mm"
     inkscape:current-layer="layer1"
     showgrid="false"
     units="pt"
     inkscape:window-width="1680"
     inkscape:window-height="987"
     inkscape:window-x="-8"
     inkscape:window-y="-8"
     inkscape:window-maximized="1" />
  <metadata
     id="metadata5">
    <rdf:RDF>
      <cc:Work
         rdf:about="">
        <dc:format>image/svg+xml</dc:format>
        <dc:type
           rdf:resource="http://purl.org/dc/dcmitype/StillImage" />
        <dc:title />
      </cc:Work>
    </rdf:RDF>
  </metadata>
  <g
     inkscape:label="圖層 1"
     inkscape:groupmode="layer"
     id="layer1"
     transform="translate(0,-285.00556)">
    <g
       aria-label="各國
檢索"
       style="font-style:normal;font-variant:normal;font-weight:normal;font-stretch:normal;font-size:10.58333302px;line-height:1;font-family:'Harlow Solid Italic';-inkscape-font-specification:'Harlow Solid Italic, ';letter-spacing:0px;word-spacing:0px;writing-mode:lr-tb;fill:#ffffff;fill-opacity:1;stroke:none;stroke-width:0.26458332"
       id="text12">
      <path
         d="m 4.0112722,288.52796 v 0.82021 h -2.12725 v -0.82021 z m -2.6246666,1.47638 h 0.4974166 v -0.22225 h 2.12725 v 0.20637 h 0.523875 v -1.905 H 1.3866056 Z m 0.7090833,-3.91054 h 1.8203333 c -0.2487083,0.28046 -0.5715,0.52916 -0.9313333,0.75141 -0.3545417,-0.21695 -0.6614583,-0.46566 -0.904875,-0.73025 z m 2.2754166,-0.45509 -0.084667,0.0265 H 2.4608139 c 0.1005417,-0.13229 0.1957917,-0.27516 0.2804583,-0.41275 l -0.4656666,-0.16404 c -0.3704167,0.64029 -1.0107083,1.22238 -1.67216664,1.58221 0.11112499,0.0847 0.29104165,0.26987 0.37041665,0.36512 0.26987499,-0.16933 0.53445829,-0.3757 0.78845829,-0.60854 0.2328333,0.24342 0.4868333,0.47096 0.7725833,0.67204 -0.650875,0.3228 -1.3758333,0.56092 -2.05845824,0.6985 0.0899583,0.10584 0.19579166,0.31221 0.24341666,0.43921 0.76199998,-0.16933 1.56104158,-0.44979 2.26483328,-0.84137 0.635,0.37571 1.3705416,0.65616 2.1378333,0.81491 0.0635,-0.13229 0.2063749,-0.33866 0.3174999,-0.45508 -0.7090833,-0.12171 -1.3917082,-0.34925 -1.9843749,-0.64558 0.5185833,-0.34396 0.9577916,-0.762 1.2594166,-1.24354 z"
         style="font-style:normal;font-variant:normal;font-weight:500;font-stretch:normal;font-size:5.29166651px;line-height:0.5;font-family:'Noto Sans CJK TC';-inkscape-font-specification:'Noto Sans CJK TC Medium';letter-spacing:1.32291663px;word-spacing:0px;writing-mode:lr-tb;fill:#ffffff;stroke-width:0.26458332"
         id="path13" />
      <path
         d="m 10.504147,286.99338 c -0.07937,0.30692 -0.185208,0.58738 -0.328083,0.84138 -0.0635,-0.29634 -0.116417,-0.65617 -0.153459,-1.03717 h 1.04775 v -0.36513 h -0.322791 l 0.232833,-0.24341 c -0.116417,-0.11642 -0.34925,-0.25929 -0.53975,-0.34925 l -0.227542,0.22754 c 0.1905,0.0953 0.418042,0.24342 0.523875,0.36512 H 9.9908552 c -0.010583,-0.16404 -0.021167,-0.33866 -0.026458,-0.508 H 9.5569386 c 0.010583,0.16934 0.021167,0.33867 0.03175,0.508 H 8.0699803 v 0.36513 h 1.5504583 c 0.052917,0.56092 0.1322916,1.07421 0.2592916,1.47637 -0.09525,0.12171 -0.2010833,0.23284 -0.3175,0.33338 l -0.010583,-0.32808 c -0.5715,0.0899 -1.1482916,0.17991 -1.5345833,0.23283 l 0.052917,0.37042 c 0.4233333,-0.0741 0.9577916,-0.17463 1.4763749,-0.2593 -0.127,0.10584 -0.2645833,0.20109 -0.4074583,0.28575 0.079375,0.0688 0.22225,0.22755 0.2751667,0.30163 0.2328333,-0.14817 0.4445,-0.32808 0.6297084,-0.52917 0.127,0.23284 0.28575,0.38629 0.481542,0.43921 0.306916,0.12171 0.529166,-0.0847 0.60325,-0.68792 -0.08467,-0.0476 -0.232834,-0.15345 -0.312209,-0.23283 -0.03175,0.32808 -0.07937,0.54504 -0.142875,0.52388 -0.137583,-0.0265 -0.254,-0.16934 -0.343958,-0.39688 0.243417,-0.35454 0.439208,-0.77258 0.566208,-1.25412 z m -1.4446251,0.82021 H 8.5621053 v -0.45508 h 0.4974166 z m -0.8255,-0.73554 v 1.016 h 1.1694583 v -1.016 z m -0.4074583,2.25425 v -3.51896 h 3.4607504 v 3.51896 z M 7.360897,285.36884 v 4.64079 h 0.4656666 v -0.23283 h 3.4607504 v 0.23283 h 0.486833 v -4.64079 z"
         style="font-style:normal;font-variant:normal;font-weight:500;font-stretch:normal;font-size:5.29166651px;line-height:0.5;font-family:'Noto Sans CJK TC';-inkscape-font-specification:'Noto Sans CJK TC Medium';letter-spacing:1.32291663px;word-spacing:0px;writing-mode:lr-tb;fill:#ffffff;stroke-width:0.26458332"
         id="path15" />
      <path
         d="m 2.9846889,292.89938 c 0.2275416,-0.17462 0.4392083,-0.37042 0.6244166,-0.58208 0.2275417,0.20108 0.5027083,0.40746 0.79375,0.58208 z m -0.8307917,1.41817 c -0.074083,-0.13229 -0.4021666,-0.65617 -0.5344583,-0.84667 v -0.29633 h 0.4445 v -0.13229 c 0.09525,0.0794 0.206375,0.20637 0.269875,0.28575 0.1852083,-0.10584 0.3704167,-0.22225 0.5450417,-0.34925 v 0.30691 h 1.5610416 v -0.36512 c 0.254,0.15875 0.5132916,0.29104 0.762,0.40216 0.037042,-0.13229 0.1269999,-0.34395 0.2063749,-0.46037 -0.5291666,-0.17992 -1.1535833,-0.51858 -1.5451666,-0.86254 0.037042,-0.0529 0.074083,-0.11113 0.111125,-0.16934 l -0.47625,-0.15875 c -0.28575,0.47096 -0.8307916,0.96309 -1.4340416,1.29117 v -0.24342 h -0.4445 v -0.99483 H 1.2278556 v 0.99483 H 0.64048062 v 0.45509 H 1.1590639 c -0.1217083,0.65087 -0.37041662,1.397 -0.62970828,1.80446 0.0635,0.1217 0.16404167,0.33866 0.20108333,0.48683 0.18520833,-0.32279 0.36512495,-0.8255 0.49741665,-1.35467 v 2.46592 h 0.3915833 v -2.56646 c 0.1217084,0.23283 0.254,0.49742 0.3122083,0.65617 z m 2.0214166,-0.35984 h 0.492125 v 0.60325 h -0.492125 z m -0.3704166,0.94721 h 1.2488333 v -1.29116 H 3.8048972 Z m -1.1377083,-0.94721 h 0.4709583 v 0.60325 H 2.6671889 Z m -0.365125,0.94721 h 1.2170833 v -1.29116 H 2.3020639 Z m 0.4339167,0.0953 c -0.1640417,0.55034 -0.5185834,1.00013 -0.98425,1.27529 0.1005417,0.0741 0.2592916,0.23284 0.3227916,0.3175 0.301625,-0.20637 0.5662084,-0.48154 0.7725834,-0.80962 0.1852083,0.13229 0.3809999,0.29104 0.4815416,0.40746 l 0.2645833,-0.32809 c -0.127,-0.1217 -0.3545416,-0.29104 -0.5609166,-0.41804 0.052917,-0.11641 0.1005416,-0.23283 0.1375833,-0.35983 z m 1.4604999,-0.005 c -0.111125,0.55563 -0.381,1.00013 -0.7990416,1.27 0.1005416,0.0688 0.2592916,0.23813 0.3227916,0.3175 0.2487084,-0.18521 0.460375,-0.42333 0.6138333,-0.70908 0.2910417,0.20637 0.587375,0.45508 0.7567084,0.62971 l 0.2963333,-0.33867 c -0.1957917,-0.1905 -0.555625,-0.45508 -0.873125,-0.66675 0.047625,-0.14288 0.089958,-0.28575 0.1217083,-0.4445 z"
         style="font-style:normal;font-variant:normal;font-weight:500;font-stretch:normal;font-size:5.29166651px;line-height:0.5;font-family:'Noto Sans CJK TC';-inkscape-font-specification:'Noto Sans CJK TC Medium';letter-spacing:1.32291663px;word-spacing:0px;writing-mode:lr-tb;fill:#ffffff;stroke-width:0.26458332"
         id="path17" />
      <path
         d="m 8.4192303,295.42351 c -0.2910417,0.27516 -0.7672917,0.55562 -1.190625,0.74083 0.111125,0.0741 0.2910417,0.24342 0.381,0.32808 0.4074583,-0.21166 0.9154583,-0.55562 1.254125,-0.88371 z m 2.6775837,-0.30692 c 0.142875,0.14817 0.259291,0.28575 0.343958,0.40217 l 0.370416,-0.254 c -0.227541,-0.29105 -0.693208,-0.73025 -1.058333,-1.02659 l -0.343958,0.21696 c 0.111125,0.0953 0.243417,0.21167 0.365125,0.32808 l -2.0108334,0.11642 c 0.6932083,-0.26458 1.3917084,-0.59796 2.0425834,-0.98954 l -0.338667,-0.29104 c -0.232833,0.15346 -0.4921248,0.30691 -0.7567081,0.43921 l -1.0371666,0.0529 c 0.3492499,-0.16933 0.6932083,-0.36512 1.0001249,-0.58208 l -0.1375833,-0.11113 h 1.8626671 v 0.60855 h 0.486833 v -1.0213 H 9.8268136 v -0.41804 h 1.9632084 v -0.42862 H 9.8268136 v -0.43921 H 9.3135219 v 0.43921 H 7.345022 v 0.42862 h 1.9684999 v 0.41804 H 7.265647 v 1.0213 h 0.4656666 v -0.60855 h 1.4075833 c -0.3545416,0.2593 -0.7672916,0.47625 -0.904875,0.54505 -0.1534583,0.0741 -0.2804583,0.127 -0.3862916,0.14287 0.042333,0.11642 0.1058333,0.32279 0.1217083,0.41275 0.1005417,-0.0317 0.2328333,-0.0582 1.0371667,-0.10583 -0.365125,0.16933 -0.6773334,0.29633 -0.8255,0.34925 -0.3069167,0.12171 -0.5291667,0.19579 -0.7090833,0.21696 0.042333,0.11641 0.1058333,0.33337 0.1217083,0.41804 0.1534583,-0.0582 0.365125,-0.0847 1.8256249,-0.17463 v 0.80963 c 0,0.0582 -0.021167,0.0794 -0.1058333,0.0794 -0.084667,0.0106 -0.381,0.005 -0.682625,-0.005 0.068792,0.127 0.1481667,0.3175 0.174625,0.44979 0.3862917,0 0.6561667,0 0.8466667,-0.0741 0.1905,-0.0688 0.2434166,-0.19579 0.2434166,-0.43392 v -0.85725 z m -0.85725,0.51858 c 0.428625,0.24342 0.989541,0.60325 1.259416,0.84138 l 0.396875,-0.27517 c -0.296333,-0.24342 -0.867833,-0.58737 -1.285875,-0.80962 z"
         style="font-style:normal;font-variant:normal;font-weight:500;font-stretch:normal;font-size:5.29166651px;line-height:0.5;font-family:'Noto Sans CJK TC';-inkscape-font-specification:'Noto Sans CJK TC Medium';letter-spacing:1.32291663px;word-spacing:0px;writing-mode:lr-tb;fill:#ffffff;stroke-width:0.26458332"
         id="path19" />
    </g>
    <text
       xml:space="preserve"
       style="font-style:normal;font-variant:normal;font-weight:normal;font-stretch:normal;font-size:10.58333302px;line-height:1;font-family:'Harlow Solid Italic';-inkscape-font-specification:'Harlow Solid Italic, ';letter-spacing:0px;word-spacing:0px;writing-mode:tb-rl;fill:#000000;fill-opacity:1;stroke:none;stroke-width:0.26458332"
       x="12.047991"
       y="283.01489"
       id="text4616"><tspan
         sodipodi:role="line"
         id="tspan4614"
         x="283.01489"
         y="6.7563243"
         style="stroke-width:0.26458332" /><tspan
         sodipodi:role="line"
         x="283.01489"
         y="-3.8270087"
         style="stroke-width:0.26458332"
         id="tspan4618" /></text>
  </g>
</svg>
