<?xml version="1.0" encoding="UTF-8" standalone="no"?>
<!-- Created with Inkscape (http://www.inkscape.org/) -->

<svg
   xmlns:dc="http://purl.org/dc/elements/1.1/"
   xmlns:cc="http://creativecommons.org/ns#"
   xmlns:rdf="http://www.w3.org/1999/02/22-rdf-syntax-ns#"
   xmlns:svg="http://www.w3.org/2000/svg"
   xmlns="http://www.w3.org/2000/svg"
   xmlns:sodipodi="http://sodipodi.sourceforge.net/DTD/sodipodi-0.dtd"
   xmlns:inkscape="http://www.inkscape.org/namespaces/inkscape"
   width="35pt"
   height="34pt"
   viewBox="0 0 12.347221 11.994444"
   version="1.1"
   id="svg8"
   inkscape:version="0.92.2 (5c3e80d, 2017-08-06)"
   sodipodi:docname="a6.svg">
  <defs
     id="defs2" />
  <sodipodi:namedview
     id="base"
     pagecolor="#ffffff"
     bordercolor="#666666"
     borderopacity="1.0"
     inkscape:pageopacity="0.0"
     inkscape:pageshadow="2"
     inkscape:zoom="11.2"
     inkscape:cx="16.093138"
     inkscape:cy="15.875839"
     inkscape:document-units="mm"
     inkscape:current-layer="layer1"
     showgrid="false"
     units="pt"
     inkscape:window-width="1680"
     inkscape:window-height="987"
     inkscape:window-x="-8"
     inkscape:window-y="-8"
     inkscape:window-maximized="1" />
  <metadata
     id="metadata5">
    <rdf:RDF>
      <cc:Work
         rdf:about="">
        <dc:format>image/svg+xml</dc:format>
        <dc:type
           rdf:resource="http://purl.org/dc/dcmitype/StillImage" />
        <dc:title />
      </cc:Work>
    </rdf:RDF>
  </metadata>
  <g
     inkscape:label="圖層 1"
     inkscape:groupmode="layer"
     id="layer1"
     transform="translate(0,-285.00556)">
    <g
       aria-label="聯絡
我們"
       style="font-style:normal;font-variant:normal;font-weight:normal;font-stretch:normal;font-size:10.58333302px;line-height:1;font-family:'Harlow Solid Italic';-inkscape-font-specification:'Harlow Solid Italic, ';letter-spacing:0px;word-spacing:0px;writing-mode:lr-tb;fill:#ffffff;fill-opacity:1;stroke:none;stroke-width:0.26458332"
       id="text12">
      <path
         d="M 1.6360699,286.40636 H 1.1174866 v -0.65617 h 0.5185833 z m -0.5185833,2.24896 v -0.76729 h 0.5185833 v 0.6932 z m 0.5185833,-1.17475 H 1.1174866 v -0.66675 h 0.5185833 z m 0.5979583,-1.73038 v -0.4445 H 0.48248658 v 0.4445 H 0.7153199 v 2.96863 l -0.29633332,0.0423 0.09525,0.43921 c 0.32279165,-0.0582 0.71966662,-0.13229 1.12183332,-0.20108 v 0.9472 h 0.41275 v -4.19629 z m 0.9260416,1.94734 v 0.79375 h -0.365125 v -0.79375 H 2.3927782 v 1.2065 h 0.714375 c -0.084667,0.26987 -0.2804584,0.52916 -0.7408333,0.73554 0.079375,0.0688 0.2169583,0.24341 0.2645833,0.33866 0.777875,-0.36512 0.936625,-0.95779 0.936625,-1.48166 v -0.79904 z m 0.015875,-0.91017 c 0.03175,0.10054 0.068792,0.20108 0.09525,0.31221 l -0.5926666,0.0582 c 0.3069166,-0.33867 0.6297083,-0.78846 0.8995833,-1.24355 l -0.333375,-0.17462 c -0.079375,0.15346 -0.174625,0.3175 -0.269875,0.46037 l -0.333375,0.0159 c 0.1957917,-0.254 0.41275,-0.59796 0.5820833,-0.93663 l -0.365125,-0.15875 c -0.142875,0.3863 -0.4021666,0.762 -0.4709583,0.86255 -0.074083,0.0953 -0.1481666,0.16404 -0.2116666,0.17991 0.037042,0.127 0.09525,0.34925 0.111125,0.44979 0.052917,-0.0265 0.142875,-0.0529 0.4603749,-0.0847 -0.127,0.18521 -0.2434166,0.32808 -0.2963333,0.38629 -0.1217083,0.14287 -0.22225,0.23283 -0.3069166,0.254 0.037042,0.11642 0.084667,0.33337 0.1058333,0.43392 0.084667,-0.0423 0.2169583,-0.0741 1.11125,-0.18521 0.026458,0.0952 0.047625,0.1905 0.0635,0.26458 l 0.3069166,-0.10054 c -0.047625,-0.21696 -0.1640416,-0.58738 -0.2592916,-0.86783 z m 2.1537083,0.74083 c -0.0635,-0.22225 -0.206375,-0.59796 -0.3280833,-0.87312 l -0.2804583,0.09 c 0.037042,0.10054 0.079375,0.20637 0.1164166,0.3175 l -0.5662083,0.0741 c 0.269875,-0.34396 0.53975,-0.78317 0.7725833,-1.22767 l -0.3280833,-0.16933 c -0.0635,0.14287 -0.142875,0.29104 -0.2169583,0.42333 l -0.3545417,0.0212 c 0.1799167,-0.23813 0.3704167,-0.55033 0.5291667,-0.86783 l -0.3280834,-0.16405 c -0.142875,0.37042 -0.3862916,0.74613 -0.4656666,0.84138 -0.074083,0.0953 -0.1375834,0.15875 -0.206375,0.16933 0.037042,0.11642 0.089958,0.32809 0.111125,0.42334 0.052917,-0.0317 0.1481666,-0.0582 0.5185833,-0.0952 -0.1217083,0.20108 -0.238125,0.35983 -0.2963333,0.42333 -0.1005417,0.14287 -0.1957917,0.23283 -0.2751667,0.24871 0.03175,0.11641 0.089958,0.32808 0.1058333,0.42862 0.084667,-0.0476 0.22225,-0.0847 1.11125,-0.22225 0.026458,0.10584 0.058208,0.20638 0.079375,0.28046 z m -0.6720416,0.9525 h -0.365125 v -0.78846 H 3.8691531 v 2.25955 h 0.4233334 v -1.04775 h 0.365125 v 0.1852 h 0.4021666 v -1.35466 H 4.6576115 Z"
         style="font-style:normal;font-variant:normal;font-weight:500;font-stretch:normal;font-size:5.29166651px;line-height:0.5;font-family:'Noto Sans CJK TC';-inkscape-font-specification:'Noto Sans CJK TC Medium';letter-spacing:1.32291663px;word-spacing:0px;writing-mode:lr-tb;fill:#ffffff;stroke-width:0.26458332"
         id="path13" />
      <path
         d="m 8.9385695,288.20553 c -0.047625,-0.28046 -0.1852083,-0.74613 -0.3227916,-1.10067 l -0.34925,0.0953 c 0.052917,0.14817 0.1005417,0.30692 0.142875,0.46567 l -0.6402917,0.09 c 0.41275,-0.47095 0.8255,-1.05833 1.1482917,-1.63512 L 8.4993612,285.8719 c -0.1164166,0.23813 -0.2487083,0.48154 -0.3862916,0.70379 l -0.47625,0.0423 c 0.28575,-0.39688 0.5767916,-0.88371 0.8043333,-1.35467 l -0.4392083,-0.18521 c -0.2116667,0.56621 -0.5767917,1.15358 -0.682625,1.30704 -0.1164167,0.15346 -0.2116667,0.25929 -0.2963333,0.28046 0.047625,0.12171 0.1164166,0.33867 0.142875,0.43392 0.079375,-0.0318 0.1905,-0.0635 0.6879166,-0.12171 -0.174625,0.24871 -0.3227917,0.43921 -0.4021667,0.52387 -0.1587499,0.1905 -0.2804583,0.3228 -0.3968749,0.34925 0.047625,0.12171 0.1217083,0.34925 0.1481666,0.4445 0.1058334,-0.0529 0.269875,-0.10054 1.30175,-0.25929 0.021167,0.10584 0.042333,0.20638 0.058208,0.29104 z m -1.6721666,0.28575 c -0.042333,0.42333 -0.1164166,0.89429 -0.238125,1.2065 0.1058334,0.0317 0.3069167,0.0952 0.3915834,0.14816 0.1111249,-0.32808 0.2010833,-0.8255 0.2539999,-1.28058 z m 0.587375,0.0582 c 0.0635,0.35455 0.1217083,0.83609 0.1322917,1.13771 l 0.381,-0.0688 c -0.015875,-0.31221 -0.079375,-0.77787 -0.1481667,-1.13771 z m 0.5450417,-0.0953 c 0.111125,0.3175 0.2275416,0.72496 0.2751666,1.00013 l 0.3598333,-0.12171 c -0.052917,-0.26987 -0.1693333,-0.67204 -0.2910416,-0.98425 z m 1.2858749,-0.4392 c 0.2804583,-0.15875 0.5609165,-0.35455 0.8202085,-0.5768 0.238125,0.21696 0.502708,0.41805 0.804333,0.5768 z m 0.142875,1.30704 v -0.87313 h 1.2964585 v 0.87313 z m 0.1905005,-3.28084 h 1.037166 c -0.142875,0.27517 -0.333375,0.52917 -0.560917,0.762 -0.216958,-0.22225 -0.391583,-0.46037 -0.5238745,-0.68791 z m 1.359958,-0.43391 -0.08996,0.0212 h -1.016 c 0.07408,-0.13758 0.142875,-0.28045 0.206375,-0.42333 l -0.470958,-0.13229 c -0.2381248,0.59796 -0.6561665,1.15358 -1.1377081,1.50812 0.111125,0.0794 0.2963333,0.254 0.3704166,0.34396 0.15875,-0.13229 0.3122084,-0.28575 0.460375,-0.46037 0.127,0.21696 0.28575,0.43391 0.4815415,0.64558 -0.3862915,0.32279 -0.8202081,0.58208 -1.2541248,0.75142 0.1005417,0.09 0.2328333,0.26458 0.2910417,0.381 0.047625,-0.0212 0.1005416,-0.0423 0.1481666,-0.0688 v 1.75154 h 0.460375 v -0.16934 h 1.2964585 v 0.16405 h 0.47625 v -1.76213 l 0.06879,0.0265 c 0.0635,-0.12171 0.211667,-0.31221 0.312209,-0.41275 -0.433917,-0.15346 -0.820209,-0.381 -1.143,-0.65088 0.365125,-0.381 0.661458,-0.83608 0.862541,-1.35466 z"
         style="font-style:normal;font-variant:normal;font-weight:500;font-stretch:normal;font-size:5.29166651px;line-height:0.5;font-family:'Noto Sans CJK TC';-inkscape-font-specification:'Noto Sans CJK TC Medium';letter-spacing:1.32291663px;word-spacing:0px;writing-mode:lr-tb;fill:#ffffff;stroke-width:0.26458332"
         id="path15" />
      <path
         d="m 5.1126948,292.67748 c -0.1640417,-0.2487 -0.5185833,-0.60854 -0.8149167,-0.86254 l -0.3704166,0.254 c 0.2963333,0.26459 0.6402916,0.64559 0.7884583,0.89429 z m -0.5609167,1.19592 c -0.15875,0.30163 -0.365125,0.59267 -0.60325,0.86254 -0.079375,-0.32279 -0.1375833,-0.67733 -0.1905,-1.07421 h 1.4499167 v -0.46566 H 3.7051115 c -0.042333,-0.46567 -0.0635,-0.96838 -0.058208,-1.47638 H 3.1389032 c 0.00529,0.50271 0.026458,1.00013 0.068792,1.47638 H 2.0858615 v -0.83079 c 0.3122084,-0.0635 0.6138333,-0.13759 0.873125,-0.22225 l -0.3439583,-0.41275 c -0.5132917,0.17991 -1.3546666,0.34925 -2.09020829,0.46037 0.0635,0.10583 0.127,0.29633 0.15345833,0.40746 0.28574999,-0.037 0.59795836,-0.0794 0.91016666,-0.13229 v 0.73025 H 0.51952824 v 0.46566 H 1.5884449 v 0.83609 c -0.4392083,0.0847 -0.84666666,0.15875 -1.15887499,0.21166 l 0.13758333,0.49213 c 0.30162499,-0.0635 0.64558336,-0.13758 1.02129166,-0.21696 v 0.94192 c 0,0.0847 -0.03175,0.11112 -0.127,0.11641 -0.089958,0.005 -0.396875,0.005 -0.71966666,-0.005 0.0740833,0.13229 0.15874999,0.35984 0.18520832,0.49742 0.42333334,0 0.71966664,-0.0159 0.90487494,-0.0952 0.1852084,-0.0794 0.254,-0.22225 0.254,-0.51329 v -1.05304 c 0.3069167,-0.0635 0.619125,-0.13759 0.92075,-0.20638 l -0.037042,-0.43921 -0.8837083,0.17463 v -0.74084 h 1.1694583 c 0.0635,0.54505 0.1534584,1.05305 0.2804584,1.48167 -0.3757084,0.32808 -0.7884584,0.60854 -1.222375,0.80963 0.127,0.11112 0.2592916,0.27516 0.3386666,0.39687 0.3704167,-0.19579 0.7196667,-0.43392 1.04775,-0.71437 0.2328333,0.5662 0.5450417,0.91545 0.9472083,0.91545 0.428625,0 0.5926667,-0.24341 0.6773333,-1.143 -0.1322916,-0.0423 -0.301625,-0.15875 -0.41275,-0.27516 -0.026458,0.65616 -0.089958,0.91546 -0.2169583,0.91546 -0.2169583,0 -0.4233333,-0.29634 -0.5979583,-0.78846 0.3545417,-0.35984 0.6561666,-0.762 0.8942916,-1.20121 z"
         style="font-style:normal;font-variant:normal;font-weight:500;font-stretch:normal;font-size:5.29166651px;line-height:0.5;font-family:'Noto Sans CJK TC';-inkscape-font-specification:'Noto Sans CJK TC Medium';letter-spacing:1.32291663px;word-spacing:0px;writing-mode:lr-tb;fill:#ffffff;stroke-width:0.26458332"
         id="path17" />
      <path
         d="m 8.0284029,291.69323 c -0.2434167,0.79375 -0.650875,1.57692 -1.0900833,2.09021 0.074083,0.12171 0.2010833,0.39688 0.2434167,0.51859 0.1481666,-0.16934 0.2857499,-0.36513 0.4233333,-0.58209 v 2.80459 h 0.4656666 v -3.66184 c 0.15875,-0.33866 0.2963334,-0.69321 0.41275,-1.04246 z m 1.5451666,0.65088 v 0.40217 H 8.9650279 v -0.40217 z m -0.6085416,1.19062 v -0.42862 h 0.6085416 v 0.42862 z m 0.9895416,-1.57162 H 8.5099446 v 4.55083 h 0.4550833 v -2.6035 h 0.9895416 z m 0.6773335,1.57162 v -0.42862 h 0.640291 v 0.42862 z m 0.640291,-1.19062 v 0.40217 h -0.640291 v -0.40217 z m 0.465667,-0.381 h -1.508125 v 1.94733 h 1.042458 v 2.01084 c 0,0.0952 -0.03704,0.127 -0.132291,0.13229 -0.105834,0.005 -0.470959,0.005 -0.8255,-0.0106 0.0635,0.1323 0.142875,0.34396 0.164041,0.47625 0.492125,0 0.809625,-0.0106 1.005417,-0.0847 0.1905,-0.0794 0.254,-0.22225 0.254,-0.508 z"
         style="font-style:normal;font-variant:normal;font-weight:500;font-stretch:normal;font-size:5.29166651px;line-height:0.5;font-family:'Noto Sans CJK TC';-inkscape-font-specification:'Noto Sans CJK TC Medium';letter-spacing:1.32291663px;word-spacing:0px;writing-mode:lr-tb;fill:#ffffff;stroke-width:0.26458332"
         id="path19" />
    </g>
    <text
       xml:space="preserve"
       style="font-style:normal;font-variant:normal;font-weight:normal;font-stretch:normal;font-size:10.58333302px;line-height:1;font-family:'Harlow Solid Italic';-inkscape-font-specification:'Harlow Solid Italic, ';letter-spacing:0px;word-spacing:0px;writing-mode:tb-rl;fill:#000000;fill-opacity:1;stroke:none;stroke-width:0.26458332"
       x="12.047991"
       y="283.01489"
       id="text4616"><tspan
         sodipodi:role="line"
         id="tspan4614"
         x="283.01489"
         y="6.7563243"
         style="stroke-width:0.26458332" /><tspan
         sodipodi:role="line"
         x="283.01489"
         y="-3.8270087"
         style="stroke-width:0.26458332"
         id="tspan4618" /></text>
  </g>
</svg>
