<?xml version="1.0" encoding="UTF-8" standalone="no"?>
<!-- Created with Inkscape (http://www.inkscape.org/) -->

<svg
   xmlns:dc="http://purl.org/dc/elements/1.1/"
   xmlns:cc="http://creativecommons.org/ns#"
   xmlns:rdf="http://www.w3.org/1999/02/22-rdf-syntax-ns#"
   xmlns:svg="http://www.w3.org/2000/svg"
   xmlns="http://www.w3.org/2000/svg"
   xmlns:sodipodi="http://sodipodi.sourceforge.net/DTD/sodipodi-0.dtd"
   xmlns:inkscape="http://www.inkscape.org/namespaces/inkscape"
   width="35pt"
   height="34pt"
   viewBox="0 0 12.347221 11.994444"
   version="1.1"
   id="svg8"
   inkscape:version="0.92.2 (5c3e80d, 2017-08-06)"
   sodipodi:docname="cn1.svg">
  <defs
     id="defs2" />
  <sodipodi:namedview
     id="base"
     pagecolor="#ffffff"
     bordercolor="#666666"
     borderopacity="1.0"
     inkscape:pageopacity="0.0"
     inkscape:pageshadow="2"
     inkscape:zoom="5.6"
     inkscape:cx="31.098652"
     inkscape:cy="19.642913"
     inkscape:document-units="mm"
     inkscape:current-layer="text12"
     showgrid="false"
     units="pt"
     inkscape:window-width="1680"
     inkscape:window-height="987"
     inkscape:window-x="-8"
     inkscape:window-y="-8"
     inkscape:window-maximized="1" />
  <metadata
     id="metadata5">
    <rdf:RDF>
      <cc:Work
         rdf:about="">
        <dc:format>image/svg+xml</dc:format>
        <dc:type
           rdf:resource="http://purl.org/dc/dcmitype/StillImage" />
        <dc:title></dc:title>
      </cc:Work>
    </rdf:RDF>
  </metadata>
  <g
     inkscape:label="圖層 1"
     inkscape:groupmode="layer"
     id="layer1"
     transform="translate(0,-285.00556)">
    <g
       aria-label="关于
广智"
       style="font-style:normal;font-variant:normal;font-weight:normal;font-stretch:normal;font-size:10.58333302px;line-height:1;font-family:'Harlow Solid Italic';-inkscape-font-specification:'Harlow Solid Italic, ';letter-spacing:0px;word-spacing:0px;writing-mode:lr-tb;fill:#000000;fill-opacity:1;stroke:none;stroke-width:0.26458332"
       id="text12">
      <path
         d="m 4.9424165,288.37714 v -0.48683 H 2.9527499 c 0.00529,-0.0635 0.00529,-0.12171 0.00529,-0.17992 v -0.66146 H 4.6619582 V 286.5621 H 3.6882915 c 0.1799167,-0.26988 0.3862917,-0.60325 0.5503334,-0.90488 l -0.5291667,-0.17991 c -0.127,0.33337 -0.365125,0.76729 -0.5662083,1.08479 H 1.7832916 l 0.3386666,-0.18521 c -0.1005416,-0.24871 -0.3280833,-0.60854 -0.5503333,-0.87312 l -0.41275,0.20637 c 0.1957917,0.254 0.4021667,0.60325 0.5027084,0.85196 H 0.70379162 v 0.48683 H 2.3918332 v 0.65088 c 0,0.0582 0,0.12171 -0.00529,0.1905 H 0.37041663 v 0.48683 H 2.2859999 c -0.1852083,0.52917 -0.6985,1.07421 -2.04787493,1.50283 0.13758333,0.11642 0.29633333,0.3228 0.36512499,0.43921 1.28058334,-0.42862 1.87854164,-0.98425 2.14841664,-1.55575 0.4392083,0.74613 1.0900833,1.27 1.9949582,1.52929 0.079375,-0.15345 0.2328334,-0.37041 0.34925,-0.48683 -0.9419166,-0.21696 -1.6245416,-0.72496 -2.0267082,-1.42875 z"
         style="font-style:normal;font-variant:normal;font-weight:500;font-stretch:normal;font-size:5.29166651px;line-height:0.5;font-family:'Noto Sans CJK TC';-inkscape-font-specification:'Noto Sans CJK TC Medium';letter-spacing:1.32291663px;word-spacing:0px;writing-mode:lr-tb;fill:#ffffff;stroke-width:0.26458332"
         id="path87" />
      <path
         d="M 11.604625,287.53047 H 9.5726246 v -1.21708 h 1.6721664 v -0.48683 H 7.281333 v 0.48683 h 1.7727083 v 1.21708 H 6.9214997 v 0.48684 h 2.1325416 v 1.62983 c 0,0.11113 -0.047625,0.14288 -0.15875,0.14288 -0.1217084,0.005 -0.523875,0.0106 -0.9419167,-0.005 0.084667,0.13759 0.1799167,0.37042 0.206375,0.51859 0.5291667,0 0.8942917,-0.0106 1.11125,-0.0953 0.2169583,-0.0794 0.301625,-0.22754 0.301625,-0.55563 v -1.63512 h 2.0320004 z"
         style="font-style:normal;font-variant:normal;font-weight:500;font-stretch:normal;font-size:5.29166651px;line-height:0.5;font-family:'Noto Sans CJK TC';-inkscape-font-specification:'Noto Sans CJK TC Medium';letter-spacing:1.32291663px;word-spacing:0px;writing-mode:lr-tb;fill:#ffffff;stroke-width:0.26458332"
         id="path89" />
      <path
         d="M 4.9635832,292.83322 H 3.2279165 c -0.047625,-0.21695 -0.1640416,-0.54504 -0.2698749,-0.79904 l -0.5132917,0.10054 c 0.079375,0.21167 0.1693333,0.48684 0.22225,0.6985 H 0.75141662 v 1.55046 c 0,0.69321 -0.047625,1.59809 -0.54504165,2.2225 0.111125,0.0688 0.32279166,0.254 0.40745832,0.35984 0.56620831,-0.69321 0.66145831,-1.79388 0.66145831,-2.57705 v -1.0795 h 3.6882916 z"
         style="font-style:normal;font-variant:normal;font-weight:500;font-stretch:normal;font-size:5.29166651px;line-height:0.5;font-family:'Noto Sans CJK TC';-inkscape-font-specification:'Noto Sans CJK TC Medium';letter-spacing:1.32291663px;word-spacing:0px;writing-mode:lr-tb;fill:#ffffff;stroke-width:0.26458332"
         id="path91" />
      <path
         d="m 7.265458,293.2936 c 0.111125,-0.12171 0.2169583,-0.26458 0.3069166,-0.43392 h 0.3704167 v 0.26988 c 0,0.0529 0,0.10583 -0.00529,0.16404 z m 1.9896666,0.98954 c -0.142875,-0.10054 -0.7249583,-0.4445 -0.9419167,-0.55033 l 0.015875,-0.0476 H 9.2709996 V 293.2936 H 8.4031663 c 0.00529,-0.0529 0.00529,-0.10583 0.00529,-0.15875 v -0.27517 h 0.73025 V 292.4681 H 7.7681663 c 0.042333,-0.11642 0.084667,-0.22754 0.1217083,-0.34925 l -0.4392083,-0.09 c -0.111125,0.39158 -0.3175,0.77788 -0.5820833,1.04246 0.1005417,0.0423 0.2804583,0.15875 0.3757083,0.22225 H 6.884458 v 0.39158 h 0.9577916 c -0.1217083,0.29634 -0.396875,0.60325 -1.0107083,0.84138 0.111125,0.0794 0.2487083,0.23283 0.3122083,0.32808 0.5185834,-0.23283 0.8307917,-0.51329 1.016,-0.79904 0.254,0.17462 0.5979583,0.42333 0.7514167,0.55033 z m 1.1800414,0.83079 v 0.41275 H 8.1068329 v -0.41275 z m -2.3283331,1.2065 v -0.42333 h 2.3283331 v 0.42333 z m -0.4868333,0.58209 h 0.4868333 v -0.18521 h 2.3283331 v 0.17991 h 0.502709 v -2.17487 H 7.6199996 Z m 3.2755414,-2.9845 H 9.9324579 v -1.0213 h 0.9630831 z m -1.4234581,-1.45521 v 1.88912 h 1.9102921 v -1.88912 z"
         style="font-style:normal;font-variant:normal;font-weight:500;font-stretch:normal;font-size:5.29166651px;line-height:0.5;font-family:'Noto Sans CJK TC';-inkscape-font-specification:'Noto Sans CJK TC Medium';letter-spacing:1.32291663px;word-spacing:0px;writing-mode:lr-tb;fill:#ffffff;stroke-width:0.26458332"
         id="path93" />
    </g>
    <text
       xml:space="preserve"
       style="font-style:normal;font-variant:normal;font-weight:normal;font-stretch:normal;font-size:10.58333302px;line-height:1;font-family:'Harlow Solid Italic';-inkscape-font-specification:'Harlow Solid Italic, ';letter-spacing:0px;word-spacing:0px;writing-mode:tb-rl;fill:#000000;fill-opacity:1;stroke:none;stroke-width:0.26458332"
       x="12.047991"
       y="283.01489"
       id="text4616"><tspan
         sodipodi:role="line"
         id="tspan4614"
         x="283.01489"
         y="6.7563243"
         style="stroke-width:0.26458332" /><tspan
         sodipodi:role="line"
         x="283.01489"
         y="-3.8270087"
         style="stroke-width:0.26458332"
         id="tspan4618" /></text>
  </g>
</svg>
