<?xml version="1.0" encoding="UTF-8" standalone="no"?>
<!-- Created with Inkscape (http://www.inkscape.org/) -->

<svg
   xmlns:dc="http://purl.org/dc/elements/1.1/"
   xmlns:cc="http://creativecommons.org/ns#"
   xmlns:rdf="http://www.w3.org/1999/02/22-rdf-syntax-ns#"
   xmlns:svg="http://www.w3.org/2000/svg"
   xmlns="http://www.w3.org/2000/svg"
   xmlns:sodipodi="http://sodipodi.sourceforge.net/DTD/sodipodi-0.dtd"
   xmlns:inkscape="http://www.inkscape.org/namespaces/inkscape"
   width="35pt"
   height="34pt"
   viewBox="0 0 12.347221 11.994444"
   version="1.1"
   id="svg8"
   inkscape:version="0.92.2 (5c3e80d, 2017-08-06)"
   sodipodi:docname="cn2.svg">
  <defs
     id="defs2" />
  <sodipodi:namedview
     id="base"
     pagecolor="#ffffff"
     bordercolor="#666666"
     borderopacity="1.0"
     inkscape:pageopacity="0.0"
     inkscape:pageshadow="2"
     inkscape:zoom="5.6"
     inkscape:cx="31.098652"
     inkscape:cy="19.642913"
     inkscape:document-units="mm"
     inkscape:current-layer="text12"
     showgrid="false"
     units="pt"
     inkscape:window-width="1680"
     inkscape:window-height="987"
     inkscape:window-x="-8"
     inkscape:window-y="-8"
     inkscape:window-maximized="1" />
  <metadata
     id="metadata5">
    <rdf:RDF>
      <cc:Work
         rdf:about="">
        <dc:format>image/svg+xml</dc:format>
        <dc:type
           rdf:resource="http://purl.org/dc/dcmitype/StillImage" />
        <dc:title></dc:title>
      </cc:Work>
    </rdf:RDF>
  </metadata>
  <g
     inkscape:label="圖層 1"
     inkscape:groupmode="layer"
     id="layer1"
     transform="translate(0,-285.00556)">
    <g
       aria-label="代理
阵容"
       style="font-style:normal;font-variant:normal;font-weight:normal;font-stretch:normal;font-size:10.58333302px;line-height:1;font-family:'Harlow Solid Italic';-inkscape-font-specification:'Harlow Solid Italic, ';letter-spacing:0px;word-spacing:0px;writing-mode:lr-tb;fill:#000000;fill-opacity:1;stroke:none;stroke-width:0.26458332"
       id="text12">
      <path
         d="M 4.9529998,286.39277 C 4.7836665,286.14935 4.4344165,285.79481 4.1327915,285.5461 l -0.365125,0.23283 c 0.2963334,0.26459 0.6402917,0.62971 0.79375,0.87313 z m -3.3496249,-0.87842 c -0.3386666,0.81492 -0.90487494,1.60867 -1.49224992,2.10608 0.0846667,0.11113 0.23283332,0.37042 0.28045832,0.49213 0.22224999,-0.20109 0.43391665,-0.43392 0.635,-0.69321 v 2.89454 h 0.508 v -3.6195 c 0.2010833,-0.32808 0.3862916,-0.67733 0.5344583,-1.02658 z m 3.4395833,1.78329 -0.0635,-0.46037 -1.5504583,0.19579 c -0.042333,-0.45509 -0.068792,-0.95779 -0.084667,-1.48696 H 2.8469166 c 0.021167,0.55562 0.052917,1.07421 0.09525,1.55575 l -1.1853333,0.14817 0.074083,0.46566 1.158875,-0.14816 c 0.2010833,1.62454 0.6138333,2.67229 1.4975416,2.74637 0.2804583,0.0159 0.523875,-0.24342 0.6455833,-1.20121 -0.09525,-0.037 -0.3122083,-0.16933 -0.4074583,-0.26987 -0.047625,0.59796 -0.127,0.889 -0.2592917,0.88371 -0.5027083,-0.0582 -0.8202083,-0.93134 -0.9895416,-2.2278 z"
         style="font-style:normal;font-variant:normal;font-weight:500;font-stretch:normal;font-size:5.29166651px;line-height:0.5;font-family:'Noto Sans CJK TC';-inkscape-font-specification:'Noto Sans CJK TC Medium';letter-spacing:1.32291663px;word-spacing:0px;writing-mode:lr-tb;fill:#ffffff;stroke-width:0.26458332"
         id="path74" />
      <path
         d="m 8.5037079,288.77931 c -0.1799166,0.0635 -0.3704166,0.12171 -0.5503333,0.17991 v -1.19591 h 0.5027083 v -0.45509 H 7.9533746 v -1.05304 h 0.587375 V 285.8001 H 6.8579997 v 0.45508 h 0.6244166 v 1.05304 h -0.5715 v 0.45509 h 0.5715 v 1.34408 c -0.254,0.0794 -0.4868333,0.14288 -0.6773333,0.19579 l 0.1164167,0.50271 c 0.4762499,-0.15346 1.0900833,-0.35983 1.6668749,-0.56092 z m 0.714375,-1.69334 h 0.6932083 v 0.58209 H 9.2180829 Z m 0,-0.96308 h 0.6932083 v 0.5715 H 9.2180829 Z m 1.7885831,0.5715 h -0.677333 v -0.5715 h 0.677333 z m 0,0.97367 h -0.677333 v -0.58209 h 0.677333 z m -0.635,2.03729 v -0.62971 h 1.17475 v -0.4445 h -1.17475 v -0.54504 h 1.105959 v -2.38125 H 8.7682913 v 2.38125 h 1.1006666 v 0.54504 H 8.7206663 v 0.4445 h 1.1482916 v 0.62971 H 8.3343746 v 0.44979 H 11.71575 v -0.44979 z"
         style="font-style:normal;font-variant:normal;font-weight:500;font-stretch:normal;font-size:5.29166651px;line-height:0.5;font-family:'Noto Sans CJK TC';-inkscape-font-specification:'Noto Sans CJK TC Medium';letter-spacing:1.32291663px;word-spacing:0px;writing-mode:lr-tb;fill:#ffffff;stroke-width:0.26458332"
         id="path76" />
      <path
         d="m 1.7092083,292.26172 -0.068792,0.0159 H 0.4550833 v 4.61962 H 0.91016662 V 292.7221 H 1.4710833 c -0.09525,0.34925 -0.238125,0.79375 -0.365125,1.143 0.3439583,0.39687 0.4233333,0.74083 0.4233333,1.01071 0,0.16404 -0.021167,0.29104 -0.09525,0.34396 -0.042333,0.0318 -0.089958,0.0423 -0.1534583,0.0476 -0.068792,0.005 -0.15875,0 -0.2592917,-0.005 0.074083,0.12171 0.111125,0.31221 0.111125,0.43392 0.1164167,0.005 0.2434167,0 0.3386667,-0.0106 0.1164166,-0.0159 0.206375,-0.0476 0.28575,-0.10583 0.1534583,-0.11113 0.22225,-0.33867 0.22225,-0.64558 0,-0.3228 -0.079375,-0.6985 -0.4339167,-1.11655 0.1640417,-0.41275 0.34925,-0.93133 0.4974167,-1.37054 z m 3.3707915,3.20146 H 3.9740415 v -0.75671 h 0.9736667 v -0.45508 H 3.9740415 v -0.75671 H 3.4872082 v 0.75671 H 2.8416249 c 0.1693333,-0.34396 0.3386667,-0.73554 0.492125,-1.15358 h 1.6668749 v -0.44979 H 3.4819165 c 0.052917,-0.16405 0.1058334,-0.32809 0.142875,-0.49213 l -0.5027083,-0.11112 c -0.047625,0.20637 -0.09525,0.40745 -0.15875,0.60325 H 2.1007916 v 0.44979 h 0.714375 c -0.1322917,0.38629 -0.2645834,0.70379 -0.3227917,0.82021 -0.111125,0.23283 -0.1957917,0.381 -0.301625,0.41275 0.052917,0.1217 0.1375833,0.35454 0.1640417,0.44979 0.047625,-0.0476 0.2434166,-0.0741 0.4709583,-0.0741 h 0.6614583 v 0.75671 H 2.0319999 v 0.44979 h 1.4552083 v 0.98425 h 0.4868333 v -0.98425 h 1.1059583 z"
         style="font-style:normal;font-variant:normal;font-weight:500;font-stretch:normal;font-size:5.29166651px;line-height:0.5;font-family:'Noto Sans CJK TC';-inkscape-font-specification:'Noto Sans CJK TC Medium';letter-spacing:1.32291663px;word-spacing:0px;writing-mode:lr-tb;fill:#ffffff;stroke-width:0.26458332"
         id="path78" />
      <path
         d="m 7.535333,292.95493 h 3.434292 v 0.58209 h 0.497416 v -1.02659 H 9.6308329 c -0.0635,-0.15875 -0.1640417,-0.35454 -0.254,-0.50271 l -0.508,0.11113 c 0.0635,0.12171 0.127,0.25929 0.1799167,0.39158 H 7.0537913 v 1.02659 H 7.535333 Z m 2.1166666,0.47096 c 0.4762504,0.29633 1.0583334,0.74083 1.3335004,1.03188 l 0.354541,-0.3175 c -0.291041,-0.29634 -0.889,-0.71967 -1.3493748,-0.99484 z m -1.30175,-0.28575 c -0.28575,0.37571 -0.7672916,0.73554 -1.2329583,0.95779 0.1005417,0.0847 0.269875,0.28046 0.3386667,0.37042 0.4815416,-0.26988 1.0159999,-0.70908 1.3546666,-1.16946 z m -0.03175,1.99496 c 0.3545417,-0.24871 0.682625,-0.53975 0.9577916,-0.85725 0.3227917,0.34396 0.6561667,0.61912 1.0265838,0.85725 z m -0.0635,1.17475 v -0.74083 H 10.25525 v 0.74083 z m 0.9419167,-2.69346 c -0.492125,0.78317 -1.4075833,1.41288 -2.3759583,1.75683 0.111125,0.10584 0.2434166,0.27517 0.3122083,0.39688 0.2169583,-0.0847 0.4339167,-0.1905 0.6402917,-0.30163 v 1.43934 h 0.4815416 v -0.16404 H 10.25525 v 0.14816 h 0.502708 v -1.48696 c 0.195792,0.10055 0.402167,0.20638 0.613833,0.29634 0.06879,-0.13759 0.201084,-0.30163 0.3175,-0.40746 -0.836083,-0.31221 -1.561041,-0.71438 -2.1537081,-1.35996 0.03175,-0.0423 0.0635,-0.0847 0.089958,-0.13229 z"
         style="font-style:normal;font-variant:normal;font-weight:500;font-stretch:normal;font-size:5.29166651px;line-height:0.5;font-family:'Noto Sans CJK TC';-inkscape-font-specification:'Noto Sans CJK TC Medium';letter-spacing:1.32291663px;word-spacing:0px;writing-mode:lr-tb;fill:#ffffff;stroke-width:0.26458332"
         id="path80" />
    </g>
    <text
       xml:space="preserve"
       style="font-style:normal;font-variant:normal;font-weight:normal;font-stretch:normal;font-size:10.58333302px;line-height:1;font-family:'Harlow Solid Italic';-inkscape-font-specification:'Harlow Solid Italic, ';letter-spacing:0px;word-spacing:0px;writing-mode:tb-rl;fill:#000000;fill-opacity:1;stroke:none;stroke-width:0.26458332"
       x="12.047991"
       y="283.01489"
       id="text4616"><tspan
         sodipodi:role="line"
         id="tspan4614"
         x="283.01489"
         y="6.7563243"
         style="stroke-width:0.26458332" /><tspan
         sodipodi:role="line"
         x="283.01489"
         y="-3.8270087"
         style="stroke-width:0.26458332"
         id="tspan4618" /></text>
  </g>
</svg>
