<?xml version="1.0" encoding="UTF-8" standalone="no"?>
<!-- Created with Inkscape (http://www.inkscape.org/) -->

<svg
   xmlns:dc="http://purl.org/dc/elements/1.1/"
   xmlns:cc="http://creativecommons.org/ns#"
   xmlns:rdf="http://www.w3.org/1999/02/22-rdf-syntax-ns#"
   xmlns:svg="http://www.w3.org/2000/svg"
   xmlns="http://www.w3.org/2000/svg"
   xmlns:sodipodi="http://sodipodi.sourceforge.net/DTD/sodipodi-0.dtd"
   xmlns:inkscape="http://www.inkscape.org/namespaces/inkscape"
   width="35pt"
   height="34pt"
   viewBox="0 0 12.347221 11.994444"
   version="1.1"
   id="svg8"
   inkscape:version="0.92.2 (5c3e80d, 2017-08-06)"
   sodipodi:docname="cn3.svg">
  <defs
     id="defs2" />
  <sodipodi:namedview
     id="base"
     pagecolor="#ffffff"
     bordercolor="#666666"
     borderopacity="1.0"
     inkscape:pageopacity="0.0"
     inkscape:pageshadow="2"
     inkscape:zoom="5.6"
     inkscape:cx="31.098652"
     inkscape:cy="19.642913"
     inkscape:document-units="mm"
     inkscape:current-layer="text12"
     showgrid="false"
     units="pt"
     inkscape:window-width="1680"
     inkscape:window-height="987"
     inkscape:window-x="-8"
     inkscape:window-y="-8"
     inkscape:window-maximized="1" />
  <metadata
     id="metadata5">
    <rdf:RDF>
      <cc:Work
         rdf:about="">
        <dc:format>image/svg+xml</dc:format>
        <dc:type
           rdf:resource="http://purl.org/dc/dcmitype/StillImage" />
        <dc:title></dc:title>
      </cc:Work>
    </rdf:RDF>
  </metadata>
  <g
     inkscape:label="圖層 1"
     inkscape:groupmode="layer"
     id="layer1"
     transform="translate(0,-285.00556)">
    <g
       aria-label="服务
项目"
       style="font-style:normal;font-variant:normal;font-weight:normal;font-stretch:normal;font-size:10.58333302px;line-height:1;font-family:'Harlow Solid Italic';-inkscape-font-specification:'Harlow Solid Italic, ';letter-spacing:0px;word-spacing:0px;writing-mode:lr-tb;fill:#000000;fill-opacity:1;stroke:none;stroke-width:0.26458332"
       id="text12">
      <path
         d="m 0.98954162,288.10197 c 0.0105833,-0.19579 0.0105833,-0.38629 0.0105833,-0.55562 v -0.22225 h 0.6773334 v 0.77787 z m 0.68791668,-1.98966 v 0.75141 H 1.0001249 v -0.75141 z m 0.4550833,-0.45509 H 0.55562496 v 1.88913 c 0,0.77258 -0.0264583,1.83092 -0.37570832,2.56117 0.11641666,0.0423 0.31749999,0.15345 0.40216666,0.22754 0.23283332,-0.48684 0.33337499,-1.143 0.38099998,-1.76742 H 1.6774583 v 1.19063 c 0,0.0741 -0.026458,0.0953 -0.089958,0.10054 -0.068792,0 -0.2804583,0.005 -0.4974166,-0.005 0.0635,0.1217 0.1217083,0.34925 0.1322916,0.47095 0.3545417,0.005 0.5715,-0.005 0.7196667,-0.09 0.1481666,-0.0794 0.1905,-0.22755 0.1905,-0.46567 z m 0.85725,2.25955 h 0.09525 c 0.1587499,0.51858 0.3757083,0.99483 0.6561666,1.397 -0.22225,0.26458 -0.47625,0.48154 -0.7514166,0.62441 z m 1.4604999,0 c -0.1058333,0.381 -0.2592916,0.71966 -0.4445,1.02129 -0.2116666,-0.30692 -0.381,-0.65088 -0.5027083,-1.02129 z m 0.2434167,-0.46567 -0.079375,0.0159 H 2.9897916 v -1.33879 h 1.3652499 v 0.55034 c 0,0.0635 -0.026458,0.0794 -0.111125,0.0794 -0.074083,0.005 -0.3704166,0.005 -0.6614583,-0.005 0.058208,0.11642 0.1322917,0.29104 0.1534583,0.41804 0.3915834,0 0.6720417,0 0.85725,-0.0688 0.1852083,-0.0635 0.2328333,-0.1905 0.2328333,-0.41804 v -1.016 H 2.5241249 v 4.65666 h 0.4656667 v -0.3757 c 0.1005416,0.0847 0.2222499,0.24341 0.2857499,0.35454 0.2751667,-0.16404 0.5185834,-0.37042 0.7408334,-0.62442 0.2328333,0.26458 0.5027083,0.48683 0.8043333,0.65088 0.074083,-0.12171 0.206375,-0.29105 0.3175,-0.381 -0.3175,-0.14817 -0.5979584,-0.37042 -0.841375,-0.635 0.3175,-0.47096 0.555625,-1.05305 0.682625,-1.76213 z"
         style="font-style:normal;font-variant:normal;font-weight:500;font-stretch:normal;font-size:5.29166651px;line-height:0.5;font-family:'Noto Sans CJK TC';-inkscape-font-specification:'Noto Sans CJK TC Medium';letter-spacing:1.32291663px;word-spacing:0px;writing-mode:lr-tb;fill:#ffffff;stroke-width:0.26458332"
         id="path61" />
      <path
         d="m 9.3239162,288.38772 c 0.042333,-0.13758 0.074083,-0.29104 0.1005417,-0.44979 l -0.5132916,-0.0423 c -0.021167,0.17992 -0.052917,0.34396 -0.09525,0.49212 H 7.281333 v 0.42334 h 1.3705416 c -0.3069167,0.59796 -0.8678333,0.92604 -1.7250833,1.09537 0.089958,0.0953 0.2328333,0.30163 0.2804583,0.41275 0.9948333,-0.25929 1.6298333,-0.68791 1.9737917,-1.50812 H 10.69975 c -0.08996,0.60325 -0.185209,0.89958 -0.306917,0.99483 -0.05821,0.0476 -0.121708,0.0529 -0.238125,0.0529 -0.137583,0 -0.4921251,-0.005 -0.8307918,-0.037 0.084667,0.1217 0.1534584,0.30162 0.15875,0.42862 0.3227917,0.0212 0.6455838,0.0212 0.8202088,0.0106 0.216958,-0.0106 0.34925,-0.0423 0.481541,-0.15875 0.1905,-0.16933 0.306917,-0.57679 0.428625,-1.51341 0.01058,-0.0635 0.02646,-0.20109 0.02646,-0.20109 z m -0.9048749,-1.97908 h 2.0319997 c -0.301625,0.27517 -0.7037914,0.49742 -1.1641664,0.68263 -0.3915833,-0.16405 -0.7090833,-0.37042 -0.9260417,-0.62442 z m 2.5188337,-0.43921 -0.08467,0.0212 H 8.8000413 c 0.111125,-0.13758 0.2116666,-0.28046 0.2963333,-0.42333 l -0.5027083,-0.10055 c -0.269875,0.4498 -0.777875,0.9578 -1.5187083,1.32292 0.1005416,0.0741 0.238125,0.25929 0.2963333,0.37042 0.2487083,-0.127 0.4709583,-0.27517 0.66675,-0.42863 0.2010833,0.21167 0.428625,0.39159 0.6932083,0.54504 -0.587375,0.16405 -1.222375,0.27517 -1.8520833,0.33338 0.074083,0.11112 0.1534583,0.30692 0.1905,0.42862 0.7567083,-0.09 1.5292916,-0.24341 2.2172083,-0.49741 0.60325,0.23812 1.3282084,0.37041 2.1325414,0.43391 0.05821,-0.127 0.169334,-0.32808 0.275167,-0.43391 -0.661458,-0.037 -1.280583,-0.11642 -1.8097501,-0.254 0.5662081,-0.28046 1.0424581,-0.65088 1.3546671,-1.11654 z"
         style="font-style:normal;font-variant:normal;font-weight:500;font-stretch:normal;font-size:5.29166651px;line-height:0.5;font-family:'Noto Sans CJK TC';-inkscape-font-specification:'Noto Sans CJK TC Medium';letter-spacing:1.32291663px;word-spacing:0px;writing-mode:lr-tb;fill:#ffffff;stroke-width:0.26458332"
         id="path63" />
      <path
         d="m 2.2013332,293.19835 v 2.46592 h 0.47625 v -2.02671 h 1.5663333 v 2.01083 h 0.4974167 v -2.45004 H 3.5136665 c 0.079375,-0.14288 0.1534584,-0.31221 0.2328334,-0.48154 h 1.3070416 v -0.4445 H 2.0319999 v 0.4445 h 1.1324167 c -0.047625,0.15875 -0.1005417,0.33337 -0.15875,0.48154 z m -0.2275416,1.74625 -0.5979583,0.16933 v -2.00025 h 0.5715 v -0.46566 H 0.24870831 v 0.46566 h 0.64029164 v 2.14313 c -0.28045832,0.0688 -0.52916665,0.13758 -0.72495831,0.1905 l 0.11641666,0.51858 c 0.49741666,-0.16404 1.143,-0.38629 1.7568333,-0.60854 z m 1.7462499,-1.05833 h -0.492125 v 1.09008 c 0,0.53975 -0.1587499,1.17475 -1.5716249,1.55046 0.1058333,0.09 0.2487083,0.26987 0.3122083,0.37571 1.476375,-0.45509 1.7515416,-1.21709 1.7515416,-1.92088 z m -0.09525,2.14841 c 0.396875,0.24871 0.8995833,0.61384 1.143,0.85725 l 0.3280833,-0.33866 c -0.254,-0.23284 -0.7725833,-0.58738 -1.1641666,-0.82021 z"
         style="font-style:normal;font-variant:normal;font-weight:500;font-stretch:normal;font-size:5.29166651px;line-height:0.5;font-family:'Noto Sans CJK TC';-inkscape-font-specification:'Noto Sans CJK TC Medium';letter-spacing:1.32291663px;word-spacing:0px;writing-mode:lr-tb;fill:#ffffff;stroke-width:0.26458332"
         id="path65" />
      <path
         d="m 7.9269163,296.03997 v -0.7567 H 10.541 v 0.7567 z M 10.541,294.0556 v 0.762 H 7.9269163 v -0.762 z m 0,-1.21708 v 0.75141 H 7.9269163 v -0.75141 z m -3.1115004,-0.48155 v 4.5138 h 0.4974167 v -0.34925 H 10.541 v 0.34925 h 0.518583 v -4.5138 z"
         style="font-style:normal;font-variant:normal;font-weight:500;font-stretch:normal;font-size:5.29166651px;line-height:0.5;font-family:'Noto Sans CJK TC';-inkscape-font-specification:'Noto Sans CJK TC Medium';letter-spacing:1.32291663px;word-spacing:0px;writing-mode:lr-tb;fill:#ffffff;stroke-width:0.26458332"
         id="path67" />
    </g>
    <text
       xml:space="preserve"
       style="font-style:normal;font-variant:normal;font-weight:normal;font-stretch:normal;font-size:10.58333302px;line-height:1;font-family:'Harlow Solid Italic';-inkscape-font-specification:'Harlow Solid Italic, ';letter-spacing:0px;word-spacing:0px;writing-mode:tb-rl;fill:#000000;fill-opacity:1;stroke:none;stroke-width:0.26458332"
       x="12.047991"
       y="283.01489"
       id="text4616"><tspan
         sodipodi:role="line"
         id="tspan4614"
         x="283.01489"
         y="6.7563243"
         style="stroke-width:0.26458332" /><tspan
         sodipodi:role="line"
         x="283.01489"
         y="-3.8270087"
         style="stroke-width:0.26458332"
         id="tspan4618" /></text>
  </g>
</svg>
