<?xml version="1.0" encoding="UTF-8" standalone="no"?>
<!-- Created with Inkscape (http://www.inkscape.org/) -->

<svg
   xmlns:dc="http://purl.org/dc/elements/1.1/"
   xmlns:cc="http://creativecommons.org/ns#"
   xmlns:rdf="http://www.w3.org/1999/02/22-rdf-syntax-ns#"
   xmlns:svg="http://www.w3.org/2000/svg"
   xmlns="http://www.w3.org/2000/svg"
   xmlns:sodipodi="http://sodipodi.sourceforge.net/DTD/sodipodi-0.dtd"
   xmlns:inkscape="http://www.inkscape.org/namespaces/inkscape"
   width="35pt"
   height="34pt"
   viewBox="0 0 12.347221 11.994444"
   version="1.1"
   id="svg8"
   inkscape:version="0.92.2 (5c3e80d, 2017-08-06)"
   sodipodi:docname="cn4.svg">
  <defs
     id="defs2" />
  <sodipodi:namedview
     id="base"
     pagecolor="#ffffff"
     bordercolor="#666666"
     borderopacity="1.0"
     inkscape:pageopacity="0.0"
     inkscape:pageshadow="2"
     inkscape:zoom="5.6"
     inkscape:cx="31.098652"
     inkscape:cy="19.642913"
     inkscape:document-units="mm"
     inkscape:current-layer="text12"
     showgrid="false"
     units="pt"
     inkscape:window-width="1680"
     inkscape:window-height="987"
     inkscape:window-x="-8"
     inkscape:window-y="-8"
     inkscape:window-maximized="1" />
  <metadata
     id="metadata5">
    <rdf:RDF>
      <cc:Work
         rdf:about="">
        <dc:format>image/svg+xml</dc:format>
        <dc:type
           rdf:resource="http://purl.org/dc/dcmitype/StillImage" />
        <dc:title />
      </cc:Work>
    </rdf:RDF>
  </metadata>
  <g
     inkscape:label="圖層 1"
     inkscape:groupmode="layer"
     id="layer1"
     transform="translate(0,-285.00556)">
    <g
       aria-label="本所
位置"
       style="font-style:normal;font-variant:normal;font-weight:normal;font-stretch:normal;font-size:10.58333302px;line-height:1;font-family:'Harlow Solid Italic';-inkscape-font-specification:'Harlow Solid Italic, ';letter-spacing:0px;word-spacing:0px;writing-mode:lr-tb;fill:#000000;fill-opacity:1;stroke:none;stroke-width:0.26458332"
       id="text12">
      <path
         d="m 2.8998332,288.88514 v -1.85208 h 0.058208 c 0.2592916,0.68791 0.6297083,1.34408 1.0742083,1.85208 z m -1.6721666,0 c 0.4497917,-0.508 0.8255,-1.15887 1.0847916,-1.85208 h 0.068792 v 1.85208 z m 3.7253332,-1.85208 v -0.49742 H 2.8998332 v -1.06892 H 2.3812499 v 1.06892 H 0.35454164 v 0.49742 H 1.8150416 c -0.3598333,0.85196 -0.95779165,1.65629 -1.62454163,2.07962 0.12170833,0.10054 0.28045833,0.27517 0.36512499,0.40217 0.22754166,-0.16933 0.44449994,-0.37042 0.65616664,-0.60325 v 0.47096 h 1.1694583 v 0.93662 h 0.5185833 v -0.93662 h 1.1694583 v -0.46038 c 0.1957917,0.22225 0.41275,0.41804 0.6402917,0.57679 0.084667,-0.14287 0.2645833,-0.33337 0.3862916,-0.43391 -0.6773333,-0.41275 -1.2805833,-1.19592 -1.6457083,-2.032 z"
         style="font-style:normal;font-variant:normal;font-weight:500;font-stretch:normal;font-size:5.29166651px;line-height:0.5;font-family:'Noto Sans CJK TC';-inkscape-font-specification:'Noto Sans CJK TC Medium';letter-spacing:1.32291663px;word-spacing:0px;writing-mode:lr-tb;fill:#ffffff;stroke-width:0.26458332"
         id="path48" />
      <path
         d="m 8.5301663,287.22356 v 0.75671 H 7.614708 v -0.15346 -0.60325 z m 0.4709583,1.20121 v -1.64571 H 7.614708 v -0.4445 c 0.5662083,-0.0688 1.1853333,-0.17992 1.6192499,-0.34925 l -0.3175,-0.41275 c -0.4233333,0.17991 -1.1588749,0.31221 -1.7885833,0.39158 v 1.86267 c 0,0.68791 -0.026458,1.57691 -0.3651249,2.20662 0.111125,0.0529 0.3174999,0.21696 0.4021666,0.31221 0.301625,-0.51858 0.4021667,-1.26471 0.4339167,-1.92087 z M 11.684,287.23414 H 9.9324579 v -0.889 c 0.5820831,-0.0847 1.2117921,-0.21167 1.6668751,-0.38629 l -0.333375,-0.42333 c -0.439208,0.1905 -1.180042,0.34925 -1.8309168,0.4445 v 1.69333 c 0,0.74083 -0.0635,1.68275 -0.7302499,2.33362 0.111125,0.0635 0.3122083,0.23813 0.3915833,0.33338 0.714375,-0.68792 0.8307916,-1.80975 0.8360833,-2.62996 H 10.63625 v 2.59292 h 0.486833 v -2.59292 H 11.684 Z"
         style="font-style:normal;font-variant:normal;font-weight:500;font-stretch:normal;font-size:5.29166651px;line-height:0.5;font-family:'Noto Sans CJK TC';-inkscape-font-specification:'Noto Sans CJK TC Medium';letter-spacing:1.32291663px;word-spacing:0px;writing-mode:lr-tb;fill:#ffffff;stroke-width:0.26458332"
         id="path50" />
      <path
         d="m 3.7041665,292.81206 c -0.052917,-0.22754 -0.1640416,-0.55563 -0.2645833,-0.81492 l -0.4656666,0.11642 c 0.1005416,0.26458 0.206375,0.61383 0.2434166,0.83608 z m 1.127125,0.16404 H 1.9473333 v 0.47625 h 2.8839582 z m -1.7303749,2.89983 c -0.052917,-0.53446 -0.2169584,-1.45521 -0.381,-2.16958 l -0.4392084,0.10054 c 0.1481667,0.71967 0.2910417,1.66158 0.333375,2.21192 z m -1.635125,-3.80471 c -0.2804583,0.77259 -0.75141664,1.54517 -1.25412496,2.0373 0.0846667,0.11641 0.22754166,0.381 0.27516666,0.49741 0.14816666,-0.15346 0.29633332,-0.32808 0.43391665,-0.52387 v 2.81516 H 1.4181666 v -3.58775 c 0.1957917,-0.35454 0.3757083,-0.72495 0.5132917,-1.09537 z m 2.5611666,4.14867 c 0.1905,-0.67733 0.3915833,-1.66158 0.5344583,-2.46062 l -0.5132916,-0.0847 c -0.089958,0.77787 -0.28575,1.84679 -0.47625,2.54529 H 1.7356666 v 0.47096 h 3.2914166 v -0.47096 z"
         style="font-style:normal;font-variant:normal;font-weight:500;font-stretch:normal;font-size:5.29166651px;line-height:0.5;font-family:'Noto Sans CJK TC';-inkscape-font-specification:'Noto Sans CJK TC Medium';letter-spacing:1.32291663px;word-spacing:0px;writing-mode:lr-tb;fill:#ffffff;stroke-width:0.26458332"
         id="path52" />
      <path
         d="m 8.059208,296.13522 h 2.375958 v 0.26459 H 8.059208 Z m 2.375958,-1.5875 v 0.254 H 8.059208 v -0.254 z m -2.375958,1.04775 h 2.375958 v 0.26459 H 8.059208 Z m 2.375958,-0.26987 H 8.059208 v -0.25929 h 2.375958 z m -1.5557497,-2.74108 h 0.7514166 v 0.40216 H 8.8794163 Z m -0.4497917,0.40216 h -0.73025 v -0.40216 h 0.73025 z m 1.6510004,-0.40216 h 0.767291 v 0.40216 h -0.767291 z m 0.841375,3.81529 v -2.16959 H 9.3080412 c 0.021167,-0.0847 0.042333,-0.16933 0.052917,-0.26458 h 2.1166671 v -0.37042 H 9.4297496 c 0.021167,-0.0899 0.03175,-0.17991 0.047625,-0.26458 H 11.33475 v -1.09008 H 7.2284163 v 1.09008 h 1.74625 c -0.010583,0.0847 -0.021167,0.17463 -0.03175,0.26458 H 6.995583 v 0.37042 h 1.8891249 c -0.010583,0.0952 -0.026458,0.17992 -0.037042,0.26458 h -1.254125 v 2.16959 H 6.9373747 v 0.35983 h 4.6725413 v -0.35983 z"
         style="font-style:normal;font-variant:normal;font-weight:500;font-stretch:normal;font-size:5.29166651px;line-height:0.5;font-family:'Noto Sans CJK TC';-inkscape-font-specification:'Noto Sans CJK TC Medium';letter-spacing:1.32291663px;word-spacing:0px;writing-mode:lr-tb;fill:#ffffff;stroke-width:0.26458332"
         id="path54" />
    </g>
    <text
       xml:space="preserve"
       style="font-style:normal;font-variant:normal;font-weight:normal;font-stretch:normal;font-size:10.58333302px;line-height:1;font-family:'Harlow Solid Italic';-inkscape-font-specification:'Harlow Solid Italic, ';letter-spacing:0px;word-spacing:0px;writing-mode:tb-rl;fill:#000000;fill-opacity:1;stroke:none;stroke-width:0.26458332"
       x="12.047991"
       y="283.01489"
       id="text4616"><tspan
         sodipodi:role="line"
         id="tspan4614"
         x="283.01489"
         y="6.7563243"
         style="stroke-width:0.26458332" /><tspan
         sodipodi:role="line"
         x="283.01489"
         y="-3.8270087"
         style="stroke-width:0.26458332"
         id="tspan4618" /></text>
  </g>
</svg>
