<?xml version="1.0" encoding="UTF-8" standalone="no"?>
<!-- Created with Inkscape (http://www.inkscape.org/) -->

<svg
   xmlns:dc="http://purl.org/dc/elements/1.1/"
   xmlns:cc="http://creativecommons.org/ns#"
   xmlns:rdf="http://www.w3.org/1999/02/22-rdf-syntax-ns#"
   xmlns:svg="http://www.w3.org/2000/svg"
   xmlns="http://www.w3.org/2000/svg"
   xmlns:sodipodi="http://sodipodi.sourceforge.net/DTD/sodipodi-0.dtd"
   xmlns:inkscape="http://www.inkscape.org/namespaces/inkscape"
   width="50pt"
   height="34pt"
   viewBox="0 0 17.638888 11.994444"
   version="1.1"
   id="svg8"
   inkscape:version="0.92.2 (5c3e80d, 2017-08-06)"
   sodipodi:docname="en1.svg">
  <defs
     id="defs2" />
  <sodipodi:namedview
     id="base"
     pagecolor="#ffffff"
     bordercolor="#666666"
     borderopacity="1.0"
     inkscape:pageopacity="0.0"
     inkscape:pageshadow="2"
     inkscape:zoom="5.6"
     inkscape:cx="10.808669"
     inkscape:cy="22.164654"
     inkscape:document-units="mm"
     inkscape:current-layer="text12"
     showgrid="false"
     units="pt"
     inkscape:window-width="1680"
     inkscape:window-height="987"
     inkscape:window-x="-8"
     inkscape:window-y="-8"
     inkscape:window-maximized="1" />
  <metadata
     id="metadata5">
    <rdf:RDF>
      <cc:Work
         rdf:about="">
        <dc:format>image/svg+xml</dc:format>
        <dc:type
           rdf:resource="http://purl.org/dc/dcmitype/StillImage" />
        <dc:title></dc:title>
      </cc:Work>
    </rdf:RDF>
  </metadata>
  <g
     inkscape:label="圖層 1"
     inkscape:groupmode="layer"
     id="layer1"
     transform="translate(0,-285.00556)">
    <g
       aria-label="About
Us"
       style="font-style:normal;font-variant:normal;font-weight:normal;font-stretch:normal;font-size:10.58333302px;line-height:1;font-family:'Harlow Solid Italic';-inkscape-font-specification:'Harlow Solid Italic, ';letter-spacing:0px;word-spacing:0px;writing-mode:lr-tb;fill:#000000;fill-opacity:1;stroke:none;stroke-width:0.26458332"
       id="text12">
      <path
         d="m 1.8404394,288.80034 0.1905,-0.59266 c 0.1375833,-0.43921 0.2645833,-0.85725 0.3862917,-1.31234 h 0.021167 c 0.127,0.44979 0.2487084,0.87313 0.3915834,1.31234 l 0.1852083,0.59266 z m 1.666875,1.57692 h 0.5185833 l -1.317625,-3.87879 H 2.1632311 l -1.31762499,3.87879 H 1.3430228 l 0.3757083,-1.18533 h 1.4181666 z"
         style="font-style:normal;font-variant:normal;font-weight:normal;font-stretch:normal;font-size:5.29166651px;line-height:0;font-family:'Noto Sans CJK TC';-inkscape-font-specification:'Noto Sans CJK TC';text-align:center;letter-spacing:0.26458332px;word-spacing:0px;writing-mode:lr-tb;text-anchor:middle;fill:#ffffff;stroke-width:0.26458332"
         id="path37" />
      <path
         d="m 6.06013,290.44605 c 0.6614583,0 1.2488333,-0.56621 1.2488333,-1.55575 0,-0.87842 -0.4021667,-1.4605 -1.1482916,-1.4605 -0.3175,0 -0.6402917,0.17992 -0.8995833,0.40746 l 0.015875,-0.51858 v -1.15359 H 4.7954217 v 4.21217 h 0.3862917 l 0.042333,-0.29634 h 0.015875 c 0.254,0.23284 0.555625,0.36513 0.8202083,0.36513 z m -0.079375,-0.40217 c -0.1905,0 -0.4497916,-0.0794 -0.7037916,-0.30162 v -1.50813 c 0.2751666,-0.25929 0.5291666,-0.39687 0.7725833,-0.39687 0.5450416,0 0.7567083,0.42862 0.7567083,1.06362 0,0.71438 -0.34925,1.143 -0.8255,1.143 z"
         style="font-style:normal;font-variant:normal;font-weight:normal;font-stretch:normal;font-size:5.29166651px;line-height:0;font-family:'Noto Sans CJK TC';-inkscape-font-specification:'Noto Sans CJK TC';text-align:center;letter-spacing:0.26458332px;word-spacing:0px;writing-mode:lr-tb;text-anchor:middle;fill:#ffffff;stroke-width:0.26458332"
         id="path39" />
      <path
         d="m 9.4424969,290.44605 c 0.7037921,0 1.3335001,-0.55033 1.3335001,-1.50283 0,-0.95779 -0.629708,-1.51342 -1.3335001,-1.51342 -0.7037917,0 -1.3335,0.55563 -1.3335,1.51342 0,0.9525 0.6297083,1.50283 1.3335,1.50283 z m 0,-0.40217 c -0.4974167,0 -0.8307916,-0.43921 -0.8307916,-1.10066 0,-0.66146 0.3333749,-1.11125 0.8307916,-1.11125 0.4974166,0 0.8360831,0.44979 0.8360831,1.11125 0,0.66145 -0.3386665,1.10066 -0.8360831,1.10066 z"
         style="font-style:normal;font-variant:normal;font-weight:normal;font-stretch:normal;font-size:5.29166651px;line-height:0;font-family:'Noto Sans CJK TC';-inkscape-font-specification:'Noto Sans CJK TC';text-align:center;letter-spacing:0.26458332px;word-spacing:0px;writing-mode:lr-tb;text-anchor:middle;fill:#ffffff;stroke-width:0.26458332"
         id="path41" />
      <path
         d="m 12.630561,290.44605 c 0.396875,0 0.682625,-0.20638 0.9525,-0.51858 h 0.01587 l 0.03704,0.44979 h 0.402167 v -2.87338 h -0.481542 v 2.03729 c -0.275166,0.34396 -0.481541,0.48684 -0.777875,0.48684 -0.381,0 -0.53975,-0.22754 -0.53975,-0.762 v -1.76213 h -0.481541 v 1.82034 c 0,0.73025 0.269875,1.12183 0.873125,1.12183 z"
         style="font-style:normal;font-variant:normal;font-weight:normal;font-stretch:normal;font-size:5.29166651px;line-height:0;font-family:'Noto Sans CJK TC';-inkscape-font-specification:'Noto Sans CJK TC';text-align:center;letter-spacing:0.26458332px;word-spacing:0px;writing-mode:lr-tb;text-anchor:middle;fill:#ffffff;stroke-width:0.26458332"
         id="path43" />
      <path
         d="m 16.178209,290.44605 c 0.174625,0 0.365125,-0.0529 0.529167,-0.10583 l -0.09525,-0.35984 c -0.09525,0.037 -0.227542,0.0741 -0.328083,0.0741 -0.333375,0 -0.4445,-0.20109 -0.4445,-0.55563 v -1.60337 h 0.777875 v -0.39159 h -0.777875 v -0.80433 h -0.402167 l -0.05821,0.80433 -0.449792,0.0265 v 0.36513 h 0.428625 v 1.59279 c 0,0.57679 0.206375,0.95779 0.820208,0.95779 z"
         style="font-style:normal;font-variant:normal;font-weight:normal;font-stretch:normal;font-size:5.29166651px;line-height:0;font-family:'Noto Sans CJK TC';-inkscape-font-specification:'Noto Sans CJK TC';text-align:center;letter-spacing:0.26458332px;word-spacing:0px;writing-mode:lr-tb;text-anchor:middle;fill:#ffffff;stroke-width:0.26458332"
         id="path45" />
      <path
         d="m 7.4414204,296.02938 c 0.7937499,0 1.3969999,-0.42333 1.3969999,-1.67216 V 292.0818 H 8.367462 v 2.29129 c 0,0.93663 -0.4074583,1.22767 -0.9260416,1.22767 -0.5027084,0 -0.8995833,-0.29104 -0.8995833,-1.22767 v -2.29129 h -0.492125 v 2.27542 c 0,1.24883 0.6032499,1.67216 1.3917083,1.67216 z"
         style="font-style:normal;font-variant:normal;font-weight:normal;font-stretch:normal;font-size:5.29166651px;line-height:0;font-family:'Noto Sans CJK TC';-inkscape-font-specification:'Noto Sans CJK TC';text-align:center;letter-spacing:0.26458332px;word-spacing:0px;writing-mode:lr-tb;text-anchor:middle;fill:#ffffff;stroke-width:0.26458332"
         id="path47" />
      <path
         d="m 10.832304,296.02938 c 0.677333,0 1.04775,-0.38629 1.04775,-0.85196 0,-0.54504 -0.460375,-0.71437 -0.878417,-0.87312 -0.322792,-0.12171 -0.635,-0.22225 -0.635,-0.49742 0,-0.22225 0.164042,-0.41275 0.523875,-0.41275 0.259292,0 0.460375,0.10584 0.661458,0.254 l 0.232834,-0.31221 c -0.227542,-0.17462 -0.53975,-0.32279 -0.894292,-0.32279 -0.624417,0 -0.9895415,0.35984 -0.9895415,0.81492 0,0.48683 0.4550835,0.68262 0.8572495,0.83079 0.3175,0.12171 0.656167,0.254 0.656167,0.54504 0,0.24871 -0.185208,0.44979 -0.566208,0.44979 -0.343959,0 -0.60325,-0.13758 -0.8519585,-0.33866 l -0.238125,0.3175 c 0.2751665,0.22754 0.6667495,0.39687 1.0742085,0.39687 z"
         style="font-style:normal;font-variant:normal;font-weight:normal;font-stretch:normal;font-size:5.29166651px;line-height:0;font-family:'Noto Sans CJK TC';-inkscape-font-specification:'Noto Sans CJK TC';text-align:center;letter-spacing:0.26458332px;word-spacing:0px;writing-mode:lr-tb;text-anchor:middle;fill:#ffffff;stroke-width:0.26458332"
         id="path49" />
    </g>
    <text
       xml:space="preserve"
       style="font-style:normal;font-variant:normal;font-weight:normal;font-stretch:normal;font-size:10.58333302px;line-height:1;font-family:'Harlow Solid Italic';-inkscape-font-specification:'Harlow Solid Italic, ';letter-spacing:0px;word-spacing:0px;writing-mode:tb-rl;fill:#000000;fill-opacity:1;stroke:none;stroke-width:0.26458332"
       x="12.047991"
       y="283.01489"
       id="text4616"><tspan
         sodipodi:role="line"
         id="tspan4614"
         x="283.01489"
         y="6.7563243"
         style="stroke-width:0.26458332" /><tspan
         sodipodi:role="line"
         x="283.01489"
         y="-3.8270087"
         style="stroke-width:0.26458332"
         id="tspan4618" /></text>
  </g>
</svg>
