<?xml version="1.0" encoding="UTF-8" standalone="no"?>
<!-- Created with Inkscape (http://www.inkscape.org/) -->

<svg
   xmlns:dc="http://purl.org/dc/elements/1.1/"
   xmlns:cc="http://creativecommons.org/ns#"
   xmlns:rdf="http://www.w3.org/1999/02/22-rdf-syntax-ns#"
   xmlns:svg="http://www.w3.org/2000/svg"
   xmlns="http://www.w3.org/2000/svg"
   xmlns:sodipodi="http://sodipodi.sourceforge.net/DTD/sodipodi-0.dtd"
   xmlns:inkscape="http://www.inkscape.org/namespaces/inkscape"
   width="43pt"
   height="34pt"
   viewBox="0 0 15.169443 11.994444"
   version="1.1"
   id="svg8"
   inkscape:version="0.92.2 (5c3e80d, 2017-08-06)"
   sodipodi:docname="en2.svg">
  <defs
     id="defs2" />
  <sodipodi:namedview
     id="base"
     pagecolor="#ffffff"
     bordercolor="#666666"
     borderopacity="1.0"
     inkscape:pageopacity="0.0"
     inkscape:pageshadow="2"
     inkscape:zoom="5.6"
     inkscape:cx="10.808669"
     inkscape:cy="22.164654"
     inkscape:document-units="mm"
     inkscape:current-layer="text12"
     showgrid="false"
     units="pt"
     inkscape:window-width="1387"
     inkscape:window-height="723"
     inkscape:window-x="0"
     inkscape:window-y="75"
     inkscape:window-maximized="0" />
  <metadata
     id="metadata5">
    <rdf:RDF>
      <cc:Work
         rdf:about="">
        <dc:format>image/svg+xml</dc:format>
        <dc:type
           rdf:resource="http://purl.org/dc/dcmitype/StillImage" />
        <dc:title></dc:title>
      </cc:Work>
    </rdf:RDF>
  </metadata>
  <g
     inkscape:label="圖層 1"
     inkscape:groupmode="layer"
     id="layer1"
     transform="translate(0,-285.00556)">
    <g
       aria-label="Our
Team"
       style="font-style:normal;font-variant:normal;font-weight:normal;font-stretch:normal;font-size:10.58333302px;line-height:1;font-family:'Harlow Solid Italic';-inkscape-font-specification:'Harlow Solid Italic, ';letter-spacing:0px;word-spacing:0px;writing-mode:lr-tb;fill:#000000;fill-opacity:1;stroke:none;stroke-width:0.26458332"
       id="text12">
      <path
         d="m 4.8465611,290.44605 c 0.9736667,0 1.6562916,-0.77788 1.6562916,-2.02142 0,-1.24354 -0.6826249,-2.00025 -1.6562916,-2.00025 -0.9736666,0 -1.6562916,0.75671 -1.6562916,2.00025 0,1.24354 0.682625,2.02142 1.6562916,2.02142 z m 0,-0.42863 c -0.6985,0 -1.1535833,-0.62441 -1.1535833,-1.59279 0,-0.97366 0.4550833,-1.57162 1.1535833,-1.57162 0.6932083,0 1.1535833,0.59796 1.1535833,1.57162 0,0.96838 -0.460375,1.59279 -1.1535833,1.59279 z"
         style="font-style:normal;font-variant:normal;font-weight:normal;font-stretch:normal;font-size:5.29166651px;line-height:0;font-family:'Noto Sans CJK TC';-inkscape-font-specification:'Noto Sans CJK TC';text-align:center;letter-spacing:0.26458332px;word-spacing:0px;writing-mode:lr-tb;text-anchor:middle;fill:#ffffff;stroke-width:0.26458332"
         id="path52" />
      <path
         d="m 8.3982613,290.44605 c 0.396875,0 0.682625,-0.20638 0.9524999,-0.51858 h 0.015875 l 0.037042,0.44979 h 0.4021667 v -2.87338 H 9.3243029 v 2.03729 c -0.2751666,0.34396 -0.4815416,0.48684 -0.777875,0.48684 -0.3809999,0 -0.5397499,-0.22754 -0.5397499,-0.762 v -1.76213 H 7.5251363 v 1.82034 c 0,0.73025 0.269875,1.12183 0.873125,1.12183 z"
         style="font-style:normal;font-variant:normal;font-weight:normal;font-stretch:normal;font-size:5.29166651px;line-height:0;font-family:'Noto Sans CJK TC';-inkscape-font-specification:'Noto Sans CJK TC';text-align:center;letter-spacing:0.26458332px;word-spacing:0px;writing-mode:lr-tb;text-anchor:middle;fill:#ffffff;stroke-width:0.26458332"
         id="path54" />
      <path
         d="m 11.041035,290.37726 h 0.481542 v -1.84679 c 0.1905,-0.49213 0.486833,-0.66146 0.724958,-0.66146 0.116417,0 0.185209,0.0106 0.280459,0.0476 l 0.08996,-0.42333 c -0.08996,-0.0476 -0.179917,-0.0635 -0.306917,-0.0635 -0.322791,0 -0.613833,0.23283 -0.814916,0.59796 h -0.01587 l -0.04233,-0.52388 h -0.396875 z"
         style="font-style:normal;font-variant:normal;font-weight:normal;font-stretch:normal;font-size:5.29166651px;line-height:0;font-family:'Noto Sans CJK TC';-inkscape-font-specification:'Noto Sans CJK TC';text-align:center;letter-spacing:0.26458332px;word-spacing:0px;writing-mode:lr-tb;text-anchor:middle;fill:#ffffff;stroke-width:0.26458332"
         id="path56" />
      <path
         d="m 1.929778,295.96059 h 0.492125 v -3.46604 h 1.17475 V 292.0818 H 0.75502804 v 0.41275 H 1.929778 Z"
         style="font-style:normal;font-variant:normal;font-weight:normal;font-stretch:normal;font-size:5.29166651px;line-height:0;font-family:'Noto Sans CJK TC';-inkscape-font-specification:'Noto Sans CJK TC';text-align:center;letter-spacing:0.26458332px;word-spacing:0px;writing-mode:lr-tb;text-anchor:middle;fill:#ffffff;stroke-width:0.26458332"
         id="path58" />
      <path
         d="m 5.2814699,296.02938 c 0.3915833,0 0.6985,-0.13229 0.9525,-0.29633 l -0.174625,-0.3175 c -0.2116667,0.14287 -0.4392083,0.22754 -0.7196667,0.22754 -0.5450416,0 -0.9207499,-0.39158 -0.9524999,-1.00542 h 1.9367499 c 0.010583,-0.0688 0.021167,-0.16933 0.021167,-0.27516 0,-0.82021 -0.41275,-1.34938 -1.143,-1.34938 -0.66675,0 -1.2964583,0.58209 -1.2964583,1.51342 0,0.94721 0.6138333,1.50283 1.3758333,1.50283 z m -0.8995833,-1.73566 c 0.058208,-0.56621 0.4180417,-0.8943 0.8255,-0.8943 0.4497916,0 0.714375,0.31221 0.714375,0.8943 z"
         style="font-style:normal;font-variant:normal;font-weight:normal;font-stretch:normal;font-size:5.29166651px;line-height:0;font-family:'Noto Sans CJK TC';-inkscape-font-specification:'Noto Sans CJK TC';text-align:center;letter-spacing:0.26458332px;word-spacing:0px;writing-mode:lr-tb;text-anchor:middle;fill:#ffffff;stroke-width:0.26458332"
         id="path60" />
      <path
         d="m 7.9011757,296.02938 c 0.3545416,0 0.6773333,-0.18521 0.9524999,-0.41275 h 0.015875 l 0.042333,0.34396 h 0.396875 v -1.76742 c 0,-0.70908 -0.2963334,-1.18004 -0.9948333,-1.18004 -0.460375,0 -0.8678333,0.20638 -1.1324167,0.37571 l 0.1905,0.33338 c 0.2275417,-0.15346 0.5291667,-0.30692 0.8625417,-0.30692 0.4709583,0 0.5926666,0.35454 0.5926666,0.72496 -1.222375,0.13758 -1.7674166,0.44979 -1.7674166,1.07421 0,0.51858 0.3598333,0.81491 0.841375,0.81491 z m 0.1375833,-0.38629 c -0.28575,0 -0.508,-0.13229 -0.508,-0.46037 0,-0.37042 0.3280833,-0.60855 1.2964583,-0.72496 v 0.80433 c -0.2804583,0.24871 -0.508,0.381 -0.7884583,0.381 z"
         style="font-style:normal;font-variant:normal;font-weight:normal;font-stretch:normal;font-size:5.29166651px;line-height:0;font-family:'Noto Sans CJK TC';-inkscape-font-specification:'Noto Sans CJK TC';text-align:center;letter-spacing:0.26458332px;word-spacing:0px;writing-mode:lr-tb;text-anchor:middle;fill:#ffffff;stroke-width:0.26458332"
         id="path62" />
      <path
         d="m 10.491198,295.96059 h 0.481542 v -2.08492 c 0.264583,-0.29633 0.508,-0.4392 0.724958,-0.4392 0.365125,0 0.534459,0.22754 0.534459,0.76729 v 1.75683 h 0.481541 v -2.08492 c 0.269875,-0.29633 0.502709,-0.4392 0.724959,-0.4392 0.365125,0 0.534458,0.22754 0.534458,0.76729 v 1.75683 h 0.481542 v -1.82033 c 0,-0.73554 -0.280459,-1.12713 -0.873125,-1.12713 -0.34925,0 -0.650875,0.22754 -0.947209,0.55034 -0.116416,-0.33867 -0.354541,-0.55034 -0.79375,-0.55034 -0.343958,0 -0.645583,0.21696 -0.894291,0.49213 h -0.01587 l -0.04233,-0.41804 h -0.396875 z"
         style="font-style:normal;font-variant:normal;font-weight:normal;font-stretch:normal;font-size:5.29166651px;line-height:0;font-family:'Noto Sans CJK TC';-inkscape-font-specification:'Noto Sans CJK TC';text-align:center;letter-spacing:0.26458332px;word-spacing:0px;writing-mode:lr-tb;text-anchor:middle;fill:#ffffff;stroke-width:0.26458332"
         id="path64" />
    </g>
    <text
       xml:space="preserve"
       style="font-style:normal;font-variant:normal;font-weight:normal;font-stretch:normal;font-size:10.58333302px;line-height:1;font-family:'Harlow Solid Italic';-inkscape-font-specification:'Harlow Solid Italic, ';letter-spacing:0px;word-spacing:0px;writing-mode:tb-rl;fill:#000000;fill-opacity:1;stroke:none;stroke-width:0.26458332"
       x="12.047991"
       y="283.01489"
       id="text4616"><tspan
         sodipodi:role="line"
         id="tspan4614"
         x="283.01489"
         y="6.7563243"
         style="stroke-width:0.26458332" /><tspan
         sodipodi:role="line"
         x="283.01489"
         y="-3.8270087"
         style="stroke-width:0.26458332"
         id="tspan4618" /></text>
  </g>
</svg>
