<?xml version="1.0" encoding="UTF-8" standalone="no"?>
<!-- Created with Inkscape (http://www.inkscape.org/) -->

<svg
   xmlns:dc="http://purl.org/dc/elements/1.1/"
   xmlns:cc="http://creativecommons.org/ns#"
   xmlns:rdf="http://www.w3.org/1999/02/22-rdf-syntax-ns#"
   xmlns:svg="http://www.w3.org/2000/svg"
   xmlns="http://www.w3.org/2000/svg"
   xmlns:sodipodi="http://sodipodi.sourceforge.net/DTD/sodipodi-0.dtd"
   xmlns:inkscape="http://www.inkscape.org/namespaces/inkscape"
   width="58pt"
   height="34pt"
   viewBox="0 0 20.461109 11.994444"
   version="1.1"
   id="svg8"
   inkscape:version="0.92.2 (5c3e80d, 2017-08-06)"
   sodipodi:docname="en3.svg">
  <defs
     id="defs2" />
  <sodipodi:namedview
     id="base"
     pagecolor="#ffffff"
     bordercolor="#666666"
     borderopacity="1.0"
     inkscape:pageopacity="0.0"
     inkscape:pageshadow="2"
     inkscape:zoom="5.6"
     inkscape:cx="10.808669"
     inkscape:cy="22.164654"
     inkscape:document-units="mm"
     inkscape:current-layer="text12"
     showgrid="false"
     units="pt"
     inkscape:window-width="1387"
     inkscape:window-height="723"
     inkscape:window-x="115"
     inkscape:window-y="82"
     inkscape:window-maximized="0" />
  <metadata
     id="metadata5">
    <rdf:RDF>
      <cc:Work
         rdf:about="">
        <dc:format>image/svg+xml</dc:format>
        <dc:type
           rdf:resource="http://purl.org/dc/dcmitype/StillImage" />
        <dc:title></dc:title>
      </cc:Work>
    </rdf:RDF>
  </metadata>
  <g
     inkscape:label="圖層 1"
     inkscape:groupmode="layer"
     id="layer1"
     transform="translate(0,-285.00556)">
    <g
       aria-label="Service"
       style="font-style:normal;font-variant:normal;font-weight:normal;font-stretch:normal;font-size:10.58333302px;line-height:1;font-family:'Harlow Solid Italic';-inkscape-font-specification:'Harlow Solid Italic, ';letter-spacing:0px;word-spacing:0px;writing-mode:lr-tb;fill:#000000;fill-opacity:1;stroke:none;stroke-width:0.26458332"
       id="text12">
      <path
         d="m 2.0013628,293.14731 c 0.809625,0 1.317625,-0.48683 1.317625,-1.10066 0,-0.57679 -0.34925,-0.84138 -0.7990417,-1.03717 l -0.555625,-0.23812 c -0.301625,-0.127 -0.6402916,-0.26988 -0.6402916,-0.64559 0,-0.34925 0.28575,-0.5715 0.7249583,-0.5715 0.3598333,0 0.6455833,0.14288 0.8837083,0.36513 l 0.2592917,-0.31221 c -0.2751667,-0.28575 -0.682625,-0.48154 -1.143,-0.48154 -0.7037916,0 -1.22237496,0.43391 -1.22237496,1.03187 0,0.56621 0.42862496,0.84138 0.78845826,0.99484 l 0.5609167,0.24341 c 0.365125,0.16404 0.6455833,0.29104 0.6455833,0.68792 0,0.381 -0.3069166,0.635 -0.8149166,0.635 -0.4021667,0 -0.79375,-0.1905 -1.07420833,-0.48154 l -0.29104166,0.33337 c 0.33866666,0.35454 0.80962499,0.57679 1.35995829,0.57679 z"
         style="font-style:normal;font-variant:normal;font-weight:normal;font-stretch:normal;font-size:5.29166651px;line-height:0;font-family:'Noto Sans CJK TC';-inkscape-font-specification:'Noto Sans CJK TC';text-align:center;letter-spacing:0.26458332px;word-spacing:0px;writing-mode:lr-tb;text-anchor:middle;fill:#ffffff;stroke-width:0.26458332"
         id="path84" />
      <path
         d="m 5.4655855,293.14731 c 0.3915833,0 0.6985,-0.13229 0.9524999,-0.29633 l -0.1746249,-0.3175 c -0.2116667,0.14288 -0.4392084,0.22754 -0.7196667,0.22754 -0.5450416,0 -0.92075,-0.39158 -0.9525,-1.00541 h 1.93675 c 0.010583,-0.0688 0.021167,-0.16934 0.021167,-0.27517 0,-0.82021 -0.4127499,-1.34938 -1.1429999,-1.34938 -0.66675,0 -1.2964583,0.58209 -1.2964583,1.51342 0,0.94721 0.6138333,1.50283 1.3758333,1.50283 z m -0.8995833,-1.73566 c 0.058208,-0.56621 0.4180416,-0.89429 0.8254999,-0.89429 0.4497917,0 0.714375,0.3122 0.714375,0.89429 z"
         style="font-style:normal;font-variant:normal;font-weight:normal;font-stretch:normal;font-size:5.29166651px;line-height:0;font-family:'Noto Sans CJK TC';-inkscape-font-specification:'Noto Sans CJK TC';text-align:center;letter-spacing:0.26458332px;word-spacing:0px;writing-mode:lr-tb;text-anchor:middle;fill:#ffffff;stroke-width:0.26458332"
         id="path86" />
      <path
         d="m 7.5065151,293.07852 h 0.4815416 v -1.84679 c 0.1905,-0.49212 0.4868333,-0.66146 0.7249583,-0.66146 0.1164167,0 0.1852083,0.0106 0.2804583,0.0476 l 0.089958,-0.42334 c -0.089958,-0.0476 -0.1799167,-0.0635 -0.3069167,-0.0635 -0.3227916,0 -0.6138333,0.23284 -0.8149166,0.59796 H 7.9457234 L 7.90339,290.20515 H 7.5065151 Z"
         style="font-style:normal;font-variant:normal;font-weight:normal;font-stretch:normal;font-size:5.29166651px;line-height:0;font-family:'Noto Sans CJK TC';-inkscape-font-specification:'Noto Sans CJK TC';text-align:center;letter-spacing:0.26458332px;word-spacing:0px;writing-mode:lr-tb;text-anchor:middle;fill:#ffffff;stroke-width:0.26458332"
         id="path88" />
      <path
         d="m 10.601975,293.07852 h 0.560916 l 1.021292,-2.87337 h -0.47625 l -0.545042,1.63512 c -0.08467,0.28046 -0.179916,0.57679 -0.264583,0.84667 h -0.02117 c -0.08996,-0.26988 -0.179916,-0.56621 -0.269875,-0.84667 l -0.53975,-1.63512 H 9.564808 Z"
         style="font-style:normal;font-variant:normal;font-weight:normal;font-stretch:normal;font-size:5.29166651px;line-height:0;font-family:'Noto Sans CJK TC';-inkscape-font-specification:'Noto Sans CJK TC';text-align:center;letter-spacing:0.26458332px;word-spacing:0px;writing-mode:lr-tb;text-anchor:middle;fill:#ffffff;stroke-width:0.26458332"
         id="path90" />
      <path
         d="m 13.006955,293.07852 h 0.481541 v -2.87337 h -0.481541 z m 0.243416,-3.46604 c 0.1905,0 0.333375,-0.13229 0.333375,-0.31221 0,-0.19579 -0.142875,-0.31221 -0.333375,-0.31221 -0.1905,0 -0.333375,0.11642 -0.333375,0.31221 0,0.17992 0.142875,0.31221 0.333375,0.31221 z"
         style="font-style:normal;font-variant:normal;font-weight:normal;font-stretch:normal;font-size:5.29166651px;line-height:0;font-family:'Noto Sans CJK TC';-inkscape-font-specification:'Noto Sans CJK TC';text-align:center;letter-spacing:0.26458332px;word-spacing:0px;writing-mode:lr-tb;text-anchor:middle;fill:#ffffff;stroke-width:0.26458332"
         id="path92" />
      <path
         d="m 15.861229,293.14731 c 0.343959,0 0.672042,-0.13229 0.926042,-0.36512 l -0.206375,-0.32279 c -0.179917,0.16404 -0.41275,0.28575 -0.677333,0.28575 -0.529167,0 -0.889,-0.43921 -0.889,-1.10067 0,-0.66146 0.381,-1.11125 0.899583,-1.11125 0.232833,0 0.407458,0.10583 0.576792,0.25929 l 0.248708,-0.32279 c -0.206375,-0.17992 -0.465667,-0.33867 -0.841375,-0.33867 -0.735542,0 -1.386417,0.55563 -1.386417,1.51342 0,0.9525 0.587375,1.50283 1.349375,1.50283 z"
         style="font-style:normal;font-variant:normal;font-weight:normal;font-stretch:normal;font-size:5.29166651px;line-height:0;font-family:'Noto Sans CJK TC';-inkscape-font-specification:'Noto Sans CJK TC';text-align:center;letter-spacing:0.26458332px;word-spacing:0px;writing-mode:lr-tb;text-anchor:middle;fill:#ffffff;stroke-width:0.26458332"
         id="path94" />
      <path
         d="m 18.725758,293.14731 c 0.391583,0 0.6985,-0.13229 0.9525,-0.29633 l -0.174625,-0.3175 c -0.211667,0.14288 -0.439209,0.22754 -0.719667,0.22754 -0.545042,0 -0.92075,-0.39158 -0.9525,-1.00541 h 1.93675 c 0.01058,-0.0688 0.02117,-0.16934 0.02117,-0.27517 0,-0.82021 -0.41275,-1.34938 -1.143,-1.34938 -0.66675,0 -1.296459,0.58209 -1.296459,1.51342 0,0.94721 0.613834,1.50283 1.375834,1.50283 z m -0.899584,-1.73566 c 0.05821,-0.56621 0.418042,-0.89429 0.8255,-0.89429 0.449792,0 0.714375,0.3122 0.714375,0.89429 z"
         style="font-style:normal;font-variant:normal;font-weight:normal;font-stretch:normal;font-size:5.29166651px;line-height:0;font-family:'Noto Sans CJK TC';-inkscape-font-specification:'Noto Sans CJK TC';text-align:center;letter-spacing:0.26458332px;word-spacing:0px;writing-mode:lr-tb;text-anchor:middle;fill:#ffffff;stroke-width:0.26458332"
         id="path96" />
    </g>
    <text
       xml:space="preserve"
       style="font-style:normal;font-variant:normal;font-weight:normal;font-stretch:normal;font-size:10.58333302px;line-height:1;font-family:'Harlow Solid Italic';-inkscape-font-specification:'Harlow Solid Italic, ';letter-spacing:0px;word-spacing:0px;writing-mode:tb-rl;fill:#000000;fill-opacity:1;stroke:none;stroke-width:0.26458332"
       x="12.047991"
       y="283.01489"
       id="text4616"><tspan
         sodipodi:role="line"
         id="tspan4614"
         x="283.01489"
         y="6.7563243"
         style="stroke-width:0.26458332" /><tspan
         sodipodi:role="line"
         x="283.01489"
         y="-3.8270087"
         style="stroke-width:0.26458332"
         id="tspan4618" /></text>
  </g>
</svg>
