<?xml version="1.0" encoding="UTF-8" standalone="no"?>
<!-- Created with Inkscape (http://www.inkscape.org/) -->

<svg
   xmlns:dc="http://purl.org/dc/elements/1.1/"
   xmlns:cc="http://creativecommons.org/ns#"
   xmlns:rdf="http://www.w3.org/1999/02/22-rdf-syntax-ns#"
   xmlns:svg="http://www.w3.org/2000/svg"
   xmlns="http://www.w3.org/2000/svg"
   xmlns:sodipodi="http://sodipodi.sourceforge.net/DTD/sodipodi-0.dtd"
   xmlns:inkscape="http://www.inkscape.org/namespaces/inkscape"
   width="63pt"
   height="34pt"
   viewBox="0 0 22.224998 11.994444"
   version="1.1"
   id="svg8"
   inkscape:version="0.92.2 (5c3e80d, 2017-08-06)"
   sodipodi:docname="en4.svg">
  <defs
     id="defs2" />
  <sodipodi:namedview
     id="base"
     pagecolor="#ffffff"
     bordercolor="#666666"
     borderopacity="1.0"
     inkscape:pageopacity="0.0"
     inkscape:pageshadow="2"
     inkscape:zoom="5.6"
     inkscape:cx="10.808669"
     inkscape:cy="22.164654"
     inkscape:document-units="mm"
     inkscape:current-layer="text12"
     showgrid="false"
     units="pt"
     inkscape:window-width="1387"
     inkscape:window-height="723"
     inkscape:window-x="108"
     inkscape:window-y="82"
     inkscape:window-maximized="0" />
  <metadata
     id="metadata5">
    <rdf:RDF>
      <cc:Work
         rdf:about="">
        <dc:format>image/svg+xml</dc:format>
        <dc:type
           rdf:resource="http://purl.org/dc/dcmitype/StillImage" />
        <dc:title></dc:title>
      </cc:Work>
    </rdf:RDF>
  </metadata>
  <g
     inkscape:label="圖層 1"
     inkscape:groupmode="layer"
     id="layer1"
     transform="translate(0,-285.00556)">
    <g
       aria-label="Location"
       style="font-style:normal;font-variant:normal;font-weight:normal;font-stretch:normal;font-size:10.58333302px;line-height:1;font-family:'Harlow Solid Italic';-inkscape-font-specification:'Harlow Solid Italic, ';letter-spacing:0px;word-spacing:0px;writing-mode:lr-tb;fill:#000000;fill-opacity:1;stroke:none;stroke-width:0.26458332"
       id="text12">
      <path
         d="M 0.37453514,293.07852 H 2.5599934 v -0.41804 H 0.86666012 v -3.46075 H 0.37453514 Z"
         style="font-style:normal;font-variant:normal;font-weight:normal;font-stretch:normal;font-size:5.29166651px;line-height:0;font-family:'Noto Sans CJK TC';-inkscape-font-specification:'Noto Sans CJK TC';text-align:center;letter-spacing:0.13229167px;word-spacing:0px;writing-mode:lr-tb;text-anchor:middle;fill:#ffffff;stroke-width:0.26458332"
         id="path99" />
      <path
         d="m 4.3818975,293.14731 c 0.7037917,0 1.3335,-0.55033 1.3335,-1.50283 0,-0.95779 -0.6297083,-1.51342 -1.3335,-1.51342 -0.7037916,0 -1.3334999,0.55563 -1.3334999,1.51342 0,0.9525 0.6297083,1.50283 1.3334999,1.50283 z m 0,-0.40216 c -0.4974166,0 -0.8307916,-0.43921 -0.8307916,-1.10067 0,-0.66146 0.333375,-1.11125 0.8307916,-1.11125 0.4974167,0 0.8360834,0.44979 0.8360834,1.11125 0,0.66146 -0.3386667,1.10067 -0.8360834,1.10067 z"
         style="font-style:normal;font-variant:normal;font-weight:normal;font-stretch:normal;font-size:5.29166651px;line-height:0;font-family:'Noto Sans CJK TC';-inkscape-font-specification:'Noto Sans CJK TC';text-align:center;letter-spacing:0.13229167px;word-spacing:0px;writing-mode:lr-tb;text-anchor:middle;fill:#ffffff;stroke-width:0.26458332"
         id="path101" />
      <path
         d="m 7.7340028,293.14731 c 0.3439583,0 0.6720417,-0.13229 0.9260417,-0.36512 l -0.206375,-0.32279 c -0.1799167,0.16404 -0.41275,0.28575 -0.6773333,0.28575 -0.5291667,0 -0.889,-0.43921 -0.889,-1.10067 0,-0.66146 0.381,-1.11125 0.8995833,-1.11125 0.2328333,0 0.4074583,0.10583 0.5767916,0.25929 l 0.2487084,-0.32279 c -0.206375,-0.17992 -0.4656667,-0.33867 -0.841375,-0.33867 -0.7355417,0 -1.3864166,0.55563 -1.3864166,1.51342 0,0.9525 0.5873749,1.50283 1.3493749,1.50283 z"
         style="font-style:normal;font-variant:normal;font-weight:normal;font-stretch:normal;font-size:5.29166651px;line-height:0;font-family:'Noto Sans CJK TC';-inkscape-font-specification:'Noto Sans CJK TC';text-align:center;letter-spacing:0.13229167px;word-spacing:0px;writing-mode:lr-tb;text-anchor:middle;fill:#ffffff;stroke-width:0.26458332"
         id="path103" />
      <path
         d="m 10.030834,293.14731 c 0.354542,0 0.677334,-0.1852 0.9525,-0.41275 h 0.01588 l 0.04233,0.34396 h 0.396875 v -1.76741 c 0,-0.70909 -0.296334,-1.18005 -0.994834,-1.18005 -0.4603747,0 -0.867833,0.20638 -1.1324163,0.37571 l 0.1905,0.33338 c 0.2275417,-0.15346 0.5291663,-0.30692 0.8625413,-0.30692 0.470959,0 0.592667,0.35454 0.592667,0.72496 -1.222375,0.13758 -1.7674166,0.44979 -1.7674166,1.07421 0,0.51858 0.3598333,0.81491 0.8413746,0.81491 z m 0.137584,-0.38629 c -0.2857503,0 -0.5080003,-0.13229 -0.5080003,-0.46037 0,-0.37042 0.3280833,-0.60854 1.2964583,-0.72496 v 0.80433 c -0.280458,0.24871 -0.508,0.381 -0.788458,0.381 z"
         style="font-style:normal;font-variant:normal;font-weight:normal;font-stretch:normal;font-size:5.29166651px;line-height:0;font-family:'Noto Sans CJK TC';-inkscape-font-specification:'Noto Sans CJK TC';text-align:center;letter-spacing:0.13229167px;word-spacing:0px;writing-mode:lr-tb;text-anchor:middle;fill:#ffffff;stroke-width:0.26458332"
         id="path105" />
      <path
         d="m 13.310758,293.14731 c 0.174625,0 0.365125,-0.0529 0.529166,-0.10583 l -0.09525,-0.35983 c -0.09525,0.037 -0.227541,0.0741 -0.328083,0.0741 -0.333375,0 -0.4445,-0.20108 -0.4445,-0.55562 v -1.60338 h 0.777875 v -0.39158 h -0.777875 v -0.80434 h -0.402167 l -0.05821,0.80434 -0.449792,0.0265 v 0.36512 h 0.428625 v 1.59279 c 0,0.57679 0.206375,0.95779 0.820209,0.95779 z"
         style="font-style:normal;font-variant:normal;font-weight:normal;font-stretch:normal;font-size:5.29166651px;line-height:0;font-family:'Noto Sans CJK TC';-inkscape-font-specification:'Noto Sans CJK TC';text-align:center;letter-spacing:0.13229167px;word-spacing:0px;writing-mode:lr-tb;text-anchor:middle;fill:#ffffff;stroke-width:0.26458332"
         id="path107" />
      <path
         d="m 14.532885,293.07852 h 0.481542 v -2.87337 h -0.481542 z m 0.243417,-3.46604 c 0.1905,0 0.333375,-0.13229 0.333375,-0.31221 0,-0.19579 -0.142875,-0.31221 -0.333375,-0.31221 -0.1905,0 -0.333375,0.11642 -0.333375,0.31221 0,0.17992 0.142875,0.31221 0.333375,0.31221 z"
         style="font-style:normal;font-variant:normal;font-weight:normal;font-stretch:normal;font-size:5.29166651px;line-height:0;font-family:'Noto Sans CJK TC';-inkscape-font-specification:'Noto Sans CJK TC';text-align:center;letter-spacing:0.13229167px;word-spacing:0px;writing-mode:lr-tb;text-anchor:middle;fill:#ffffff;stroke-width:0.26458332"
         id="path109" />
      <path
         d="m 17.238994,293.14731 c 0.703792,0 1.3335,-0.55033 1.3335,-1.50283 0,-0.95779 -0.629708,-1.51342 -1.3335,-1.51342 -0.703791,0 -1.3335,0.55563 -1.3335,1.51342 0,0.9525 0.629709,1.50283 1.3335,1.50283 z m 0,-0.40216 c -0.497416,0 -0.830791,-0.43921 -0.830791,-1.10067 0,-0.66146 0.333375,-1.11125 0.830791,-1.11125 0.497417,0 0.836084,0.44979 0.836084,1.11125 0,0.66146 -0.338667,1.10067 -0.836084,1.10067 z"
         style="font-style:normal;font-variant:normal;font-weight:normal;font-stretch:normal;font-size:5.29166651px;line-height:0;font-family:'Noto Sans CJK TC';-inkscape-font-specification:'Noto Sans CJK TC';text-align:center;letter-spacing:0.13229167px;word-spacing:0px;writing-mode:lr-tb;text-anchor:middle;fill:#ffffff;stroke-width:0.26458332"
         id="path111" />
      <path
         d="m 19.458682,293.07852 h 0.481542 v -2.08491 c 0.291041,-0.29105 0.492125,-0.43921 0.788458,-0.43921 0.381,0 0.545042,0.22754 0.545042,0.76729 v 1.75683 h 0.481541 v -1.82033 c 0,-0.73554 -0.275166,-1.12713 -0.878416,-1.12713 -0.391584,0 -0.687917,0.21696 -0.963084,0.48684 h -0.01588 l -0.04233,-0.41275 h -0.396875 z"
         style="font-style:normal;font-variant:normal;font-weight:normal;font-stretch:normal;font-size:5.29166651px;line-height:0;font-family:'Noto Sans CJK TC';-inkscape-font-specification:'Noto Sans CJK TC';text-align:center;letter-spacing:0.13229167px;word-spacing:0px;writing-mode:lr-tb;text-anchor:middle;fill:#ffffff;stroke-width:0.26458332"
         id="path113" />
    </g>
    <text
       xml:space="preserve"
       style="font-style:normal;font-variant:normal;font-weight:normal;font-stretch:normal;font-size:10.58333302px;line-height:1;font-family:'Harlow Solid Italic';-inkscape-font-specification:'Harlow Solid Italic, ';letter-spacing:0px;word-spacing:0px;writing-mode:tb-rl;fill:#000000;fill-opacity:1;stroke:none;stroke-width:0.26458332"
       x="12.047991"
       y="283.01489"
       id="text4616"><tspan
         sodipodi:role="line"
         id="tspan4614"
         x="283.01489"
         y="6.7563243"
         style="stroke-width:0.26458332" /><tspan
         sodipodi:role="line"
         x="283.01489"
         y="-3.8270087"
         style="stroke-width:0.26458332"
         id="tspan4618" /></text>
  </g>
</svg>
